<svg width="198" height="191" viewBox="0 0 198 191" fill="none" xmlns="http://www.w3.org/2000/svg">
<path opacity="0.2" d="M154.87 155.434C154.872 155.434 154.855 155.45 154.813 155.482C154.847 155.45 154.868 155.434 154.87 155.434ZM139.513 155.497C143.599 156.081 146.992 156.73 149.615 157.406C146.992 158.083 143.599 158.732 139.513 159.316C128.381 160.906 112.854 161.906 95.6016 161.906C78.349 161.906 62.8218 160.906 51.6902 159.316C47.6039 158.732 44.2116 158.083 41.5877 157.406C44.2116 156.73 47.6039 156.081 51.6902 155.497C62.8218 153.907 78.349 152.906 95.6016 152.906C112.854 152.906 128.381 153.907 139.513 155.497ZM36.3336 155.434C36.3356 155.434 36.3564 155.45 36.3901 155.482C36.3484 155.45 36.3315 155.434 36.3336 155.434ZM36.3336 159.379C36.3315 159.379 36.3484 159.363 36.3901 159.331C36.3564 159.363 36.3356 159.379 36.3336 159.379ZM154.813 159.331C154.855 159.363 154.872 159.379 154.87 159.379C154.868 159.379 154.847 159.363 154.813 159.331Z" fill="#161F30" stroke="#0C111A" stroke-width="9"/>
<path d="M167.246 33.2488L157.605 29.7028C157.321 29.5982 157.077 29.4092 156.904 29.1612C156.731 28.9133 156.639 28.6184 156.639 28.3162C156.639 28.014 156.731 27.719 156.904 27.4711C157.077 27.2232 157.321 27.0341 157.605 26.9295L167.246 23.3835C167.447 23.31 167.629 23.1936 167.78 23.0425C167.932 22.8913 168.048 22.709 168.122 22.5082L171.668 12.8669C171.772 12.5834 171.961 12.3388 172.209 12.166C172.457 11.9933 172.752 11.9006 173.054 11.9006C173.356 11.9006 173.651 11.9933 173.899 12.166C174.147 12.3388 174.336 12.5834 174.441 12.8669L177.987 22.5082C178.06 22.709 178.177 22.8913 178.328 23.0425C178.479 23.1936 178.661 23.31 178.862 23.3835L188.503 26.9295C188.787 27.0341 189.032 27.2232 189.204 27.4711C189.377 27.719 189.47 28.014 189.47 28.3162C189.47 28.6184 189.377 28.9133 189.204 29.1612C189.032 29.4092 188.787 29.5982 188.503 29.7028L178.862 33.2488C178.661 33.3223 178.479 33.4387 178.328 33.5899C178.177 33.741 178.06 33.9233 177.987 34.1241L174.441 43.7654C174.336 44.0489 174.147 44.2935 173.899 44.4663C173.651 44.6391 173.356 44.7317 173.054 44.7317C172.752 44.7317 172.457 44.6391 172.209 44.4663C171.961 44.2935 171.772 44.0489 171.668 43.7654L168.122 34.1241C168.048 33.9233 167.932 33.741 167.78 33.5899C167.629 33.4387 167.447 33.3223 167.246 33.2488Z" fill="#2AB5F0"/>
<path d="M155.209 159.755L145.568 156.209C145.284 156.104 145.04 155.915 144.867 155.667C144.694 155.419 144.602 155.124 144.602 154.822C144.602 154.52 144.694 154.225 144.867 153.977C145.04 153.729 145.284 153.54 145.568 153.435L155.209 149.889C155.41 149.816 155.592 149.699 155.743 149.548C155.895 149.397 156.011 149.215 156.084 149.014L159.63 139.373C159.735 139.089 159.924 138.845 160.172 138.672C160.42 138.499 160.715 138.406 161.017 138.406C161.319 138.406 161.614 138.499 161.862 138.672C162.11 138.845 162.299 139.089 162.404 139.373L165.95 149.014C166.023 149.215 166.14 149.397 166.291 149.548C166.442 149.699 166.624 149.816 166.825 149.889L176.466 153.435C176.75 153.54 176.994 153.729 177.167 153.977C177.34 154.225 177.433 154.52 177.433 154.822C177.433 155.124 177.34 155.419 177.167 155.667C176.994 155.915 176.75 156.104 176.466 156.209L166.825 159.755C166.624 159.828 166.442 159.945 166.291 160.096C166.14 160.247 166.023 160.429 165.95 160.63L162.404 170.271C162.299 170.555 162.11 170.799 161.862 170.972C161.614 171.145 161.319 171.238 161.017 171.238C160.715 171.238 160.42 171.145 160.172 170.972C159.924 170.799 159.735 170.555 159.63 170.271L156.084 160.63C156.011 160.429 155.895 160.247 155.743 160.096C155.592 159.945 155.41 159.828 155.209 159.755Z" fill="#2AB5F0"/>
<path d="M28.1928 34.7331L21.7653 32.3691C21.5763 32.2993 21.4132 32.1733 21.298 32.008C21.1828 31.8427 21.1211 31.6461 21.1211 31.4447C21.1211 31.2432 21.1828 31.0466 21.298 30.8813C21.4132 30.716 21.5763 30.59 21.7653 30.5202L28.1928 28.1562C28.3267 28.1072 28.4482 28.0296 28.549 27.9289C28.6498 27.8281 28.7273 27.7065 28.7764 27.5727L31.1403 21.1452C31.2101 20.9562 31.3361 20.7931 31.5014 20.6779C31.6667 20.5627 31.8633 20.501 32.0648 20.501C32.2662 20.501 32.4629 20.5627 32.6282 20.6779C32.7934 20.7931 32.9195 20.9562 32.9892 21.1452L35.3532 27.5727C35.4022 27.7065 35.4798 27.8281 35.5806 27.9289C35.6814 28.0296 35.8029 28.1072 35.9367 28.1562L42.3643 30.5202C42.5533 30.59 42.7164 30.716 42.8315 30.8813C42.9467 31.0466 43.0085 31.2432 43.0085 31.4447C43.0085 31.6461 42.9467 31.8427 42.8315 32.008C42.7164 32.1733 42.5533 32.2993 42.3643 32.3691L35.9367 34.7331C35.8029 34.7821 35.6814 34.8597 35.5806 34.9605C35.4798 35.0612 35.4022 35.1828 35.3532 35.3166L32.9892 41.7442C32.9195 41.9332 32.7934 42.0962 32.6282 42.2114C32.4629 42.3266 32.2662 42.3883 32.0648 42.3883C31.8633 42.3883 31.6667 42.3266 31.5014 42.2114C31.3361 42.0962 31.2101 41.9332 31.1403 41.7442L28.7764 35.3166C28.7273 35.1828 28.6498 35.0612 28.549 34.9605C28.4482 34.8597 28.3267 34.7821 28.1928 34.7331Z" fill="#2AB5F0"/>
<circle cx="95.4668" cy="91.926" r="65.8301" fill="#3F5173" stroke="#A5B5D6" stroke-width="2.5"/>
<circle cx="95.4668" cy="91.926" r="55.2305" fill="#3F5173" stroke="#A5B5D6" stroke-width="2.5"/>
<circle cx="95.4658" cy="91.9264" r="45.5635" stroke="white" stroke-width="6" stroke-dasharray="2.74 27.36"/>
<circle cx="185.602" cy="72.4065" r="3" fill="#A5B5D6"/>
<circle cx="76.6016" cy="171.406" r="3" fill="#A5B5D6"/>
<circle cx="119.102" cy="8.90649" r="2.5" fill="#A5B5D6"/>
<circle cx="8.60156" cy="112.406" r="4" fill="#A5B5D6"/>
<circle cx="95.4676" cy="91.9264" r="4.78786" fill="white"/>
<path d="M95.4668 91.9261L95.4668 70.0388" stroke="white" stroke-width="4" stroke-linecap="round"/>
<path d="M95.4668 91.9261H119.33" stroke="white" stroke-width="4" stroke-linecap="round"/>
</svg>
