<svg width="250" height="250" viewBox="0 0 250 250" fill="none" xmlns="http://www.w3.org/2000/svg">
<circle cx="165.988" cy="38.7065" r="3.7065" fill="white"/>
<circle cx="220.206" cy="186.706" r="3.7065" fill="white"/>
<circle cx="50" cy="90.2114" r="3" fill="white"/>
<circle cx="92.5" cy="201" r="4" fill="white"/>
<g opacity="0.2">
<mask id="path-5-inside-1_152_364" fill="white">
<ellipse cx="129.5" cy="180" rx="41" ry="7"/>
</mask>
<ellipse cx="129.5" cy="180" rx="41" ry="7" fill="#161F30"/>
<path d="M159.381 180C159.381 175.74 161.929 173.385 162.543 172.873C163.266 172.27 163.663 172.193 163.116 172.414C162.125 172.814 160.026 173.407 156.62 173.989C149.988 175.121 140.394 175.881 129.5 175.881V198.119C141.25 198.119 152.156 197.312 160.363 195.911C164.376 195.225 168.282 194.311 171.44 193.036C172.967 192.419 174.975 191.463 176.791 189.949C178.497 188.525 181.619 185.226 181.619 180H159.381ZM129.5 175.881C118.606 175.881 109.012 175.121 102.38 173.989C98.9742 173.407 96.8753 172.814 95.8841 172.414C95.3365 172.193 95.7336 172.27 96.4566 172.873C97.0706 173.385 99.6195 175.74 99.6195 180H77.3805C77.3805 185.226 80.503 188.525 82.2094 189.949C84.0247 191.463 86.0327 192.419 87.5598 193.036C90.7181 194.311 94.6235 195.225 98.6372 195.911C106.844 197.312 117.75 198.119 129.5 198.119V175.881ZM99.6195 180C99.6195 184.26 97.0706 186.615 96.4566 187.127C95.7336 187.73 95.3365 187.807 95.8841 187.586C96.8753 187.186 98.9742 186.593 102.38 186.011C109.012 184.879 118.606 184.119 129.5 184.119V161.881C117.75 161.881 106.844 162.688 98.6372 164.089C94.6235 164.775 90.7181 165.689 87.5598 166.964C86.0327 167.581 84.0247 168.537 82.2094 170.051C80.503 171.475 77.3805 174.774 77.3805 180H99.6195ZM129.5 184.119C140.394 184.119 149.988 184.879 156.62 186.011C160.026 186.593 162.125 187.186 163.116 187.586C163.663 187.807 163.266 187.73 162.543 187.127C161.929 186.615 159.381 184.26 159.381 180H181.619C181.619 174.774 178.497 171.475 176.791 170.051C174.975 168.537 172.967 167.581 171.44 166.964C168.282 165.689 164.376 164.775 160.363 164.089C152.156 162.688 141.25 161.881 129.5 161.881V184.119Z" fill="#0C111A" mask="url(#path-5-inside-1_152_364)"/>
</g>
<circle cx="130" cy="130" r="48.75" fill="#3F5173" stroke="#7E92BD" stroke-width="2.5"/>
<path d="M145.165 114.839L114.843 145.161M114.843 114.839L145.165 145.161" stroke="white" stroke-width="2.5" stroke-linecap="round"/>
<rect x="202.766" y="105.101" width="27.8555" height="2.68834" rx="1.34417" fill="white"/>
<rect x="190.5" y="99.0508" width="27.8555" height="2.68834" rx="1.34417" fill="white"/>
<rect x="198.688" y="93" width="27.8555" height="2.68834" rx="1.34417" fill="white"/>
<rect x="47.7656" y="170.051" width="27.8555" height="2.68834" rx="1.34417" fill="white"/>
<rect x="35.5" y="164" width="27.8555" height="2.68834" rx="1.34417" fill="white"/>
</svg>
