<svg width="250" height="251" viewBox="0 0 250 251" fill="none" xmlns="http://www.w3.org/2000/svg">
<path fill-rule="evenodd" clip-rule="evenodd" d="M197.281 50.4797C199.032 48.3439 202.182 48.0315 204.318 49.7819L217.533 60.6123C221.01 63.4613 223.025 67.7192 223.025 72.2139V159.294C223.025 159.324 223.025 159.354 223.024 159.383C223.025 159.403 223.025 159.423 223.025 159.443C223.025 169.445 214.916 177.554 204.914 177.554C194.911 177.554 186.803 169.445 186.803 159.443C186.803 159.357 186.805 159.271 186.809 159.186C186.674 154.825 183.096 151.332 178.702 151.332H162.47C159.708 151.332 157.47 149.093 157.47 146.332C157.47 143.571 159.708 141.332 162.47 141.332H178.702C188.705 141.332 196.813 149.441 196.813 159.443C196.813 159.529 196.811 159.615 196.807 159.7C196.942 164.061 200.52 167.554 204.914 167.554C209.393 167.554 213.025 163.923 213.025 159.443C213.025 159.413 213.025 159.384 213.026 159.354C213.025 159.334 213.025 159.314 213.025 159.294V113.718L209.239 110.616C205.763 107.767 203.747 103.509 203.747 99.014V89.8231C203.747 85.3284 205.763 81.0705 209.239 78.2215L213.025 75.1186V72.2139C213.025 70.7157 212.353 69.2964 211.195 68.3467L197.979 57.5163C195.844 55.7659 195.531 52.6155 197.281 50.4797Z" fill="#3F5173" stroke="#7E92BD" stroke-width="2.5" stroke-miterlimit="1.58127" stroke-linecap="round" stroke-linejoin="round"/>
<g opacity="0.2">
<mask id="path-2-inside-1_140_620" fill="white">
<ellipse cx="112.817" cy="205.142" rx="84.8423" ry="10.243"/>
</mask>
<ellipse cx="112.817" cy="205.142" rx="84.8423" ry="10.243" fill="#161F30"/>
<path d="M186.54 205.142C186.54 202.171 187.833 200.076 188.712 199.031C189.524 198.065 190.244 197.653 190.285 197.629C190.362 197.584 189.753 197.919 187.94 198.436C184.483 199.423 178.947 200.444 171.477 201.345C156.689 203.131 135.945 204.265 112.817 204.265V226.504C136.546 226.504 158.223 225.346 174.142 223.424C182.025 222.472 188.914 221.286 194.044 219.821C196.524 219.114 199.249 218.162 201.586 216.783C203.048 215.921 208.779 212.363 208.779 205.142H186.54ZM112.817 204.265C89.6892 204.265 68.9448 203.131 54.1571 201.345C46.6868 200.444 41.1506 199.423 37.694 198.436C35.8806 197.919 35.2721 197.584 35.3486 197.629C35.3894 197.653 36.1094 198.065 36.9219 199.031C37.8005 200.076 39.0941 202.171 39.0941 205.142H16.8551C16.8551 212.363 22.5861 215.921 24.048 216.783C26.3849 218.162 29.11 219.114 31.5899 219.821C36.7197 221.286 43.6084 222.472 51.4916 223.424C67.4107 225.346 89.0875 226.504 112.817 226.504V204.265ZM39.0941 205.142C39.0941 208.112 37.8005 210.208 36.9219 211.252C36.1094 212.218 35.3894 212.63 35.3486 212.654C35.2721 212.7 35.8806 212.365 37.694 211.847C41.1506 210.861 46.6868 209.84 54.1571 208.938C68.9448 207.153 89.6892 206.018 112.817 206.018V183.779C89.0875 183.779 67.4107 184.938 51.4916 186.86C43.6084 187.811 36.7197 188.998 31.5899 190.462C29.11 191.17 26.3849 192.122 24.048 193.501C22.5861 194.363 16.8551 197.921 16.8551 205.142H39.0941ZM112.817 206.018C135.945 206.018 156.689 207.153 171.477 208.938C178.947 209.84 184.483 210.861 187.94 211.847C189.753 212.365 190.362 212.7 190.285 212.654C190.244 212.63 189.524 212.218 188.712 211.252C187.833 210.208 186.54 208.112 186.54 205.142H208.779C208.779 197.921 203.048 194.363 201.586 193.501C199.249 192.122 196.524 191.17 194.044 190.462C188.914 188.998 182.025 187.811 174.142 186.86C158.223 184.938 136.546 183.779 112.817 183.779V206.018Z" fill="#0C111A" mask="url(#path-2-inside-1_140_620)"/>
</g>
<circle cx="36.1098" cy="96.4438" r="3.7065" fill="white"/>
<circle cx="193.954" cy="22.705" r="3.7065" fill="white"/>
<circle cx="103.747" cy="228.295" r="3.7065" fill="white"/>
<rect x="48.9033" y="188.547" width="127.828" height="12.7044" rx="2.75" fill="#3F5173" stroke="#7E92BD" stroke-width="2.5"/>
<mask id="path-8-inside-2_140_620" fill="white">
<path fill-rule="evenodd" clip-rule="evenodd" d="M85.5205 34.7456C67.8474 34.7456 53.5205 49.0725 53.5205 66.7456V194.899H172.115V66.7456C172.115 49.0725 157.788 34.7456 140.115 34.7456H85.5205ZM82.2471 51.02C75.6197 51.02 70.2471 56.3926 70.2471 63.02V82.5494C70.2471 89.1769 75.6196 94.5494 82.2471 94.5494H143.391C150.018 94.5494 155.391 89.1769 155.391 82.5494V63.02C155.391 56.3926 150.018 51.02 143.391 51.02H82.2471Z"/>
</mask>
<path fill-rule="evenodd" clip-rule="evenodd" d="M85.5205 34.7456C67.8474 34.7456 53.5205 49.0725 53.5205 66.7456V194.899H172.115V66.7456C172.115 49.0725 157.788 34.7456 140.115 34.7456H85.5205ZM82.2471 51.02C75.6197 51.02 70.2471 56.3926 70.2471 63.02V82.5494C70.2471 89.1769 75.6196 94.5494 82.2471 94.5494H143.391C150.018 94.5494 155.391 89.1769 155.391 82.5494V63.02C155.391 56.3926 150.018 51.02 143.391 51.02H82.2471Z" fill="#3F5173"/>
<path d="M53.5205 194.899H51.0205V197.399H53.5205V194.899ZM172.115 194.899V197.399H174.615V194.899H172.115ZM56.0205 66.7456C56.0205 50.4532 69.2281 37.2456 85.5205 37.2456V32.2456C66.4667 32.2456 51.0205 47.6918 51.0205 66.7456H56.0205ZM56.0205 194.899V66.7456H51.0205V194.899H56.0205ZM172.115 192.399H53.5205V197.399H172.115V192.399ZM169.615 66.7456V194.899H174.615V66.7456H169.615ZM140.115 37.2456C156.408 37.2456 169.615 50.4532 169.615 66.7456H174.615C174.615 47.6918 159.169 32.2456 140.115 32.2456V37.2456ZM85.5205 37.2456H140.115V32.2456H85.5205V37.2456ZM72.7471 63.02C72.7471 57.7733 77.0004 53.52 82.2471 53.52V48.52C74.2389 48.52 67.7471 55.0119 67.7471 63.02H72.7471ZM72.7471 82.5494V63.02H67.7471V82.5494H72.7471ZM82.2471 92.0494C77.0004 92.0494 72.7471 87.7961 72.7471 82.5494H67.7471C67.7471 90.5576 74.2389 97.0494 82.2471 97.0494V92.0494ZM143.391 92.0494H82.2471V97.0494H143.391V92.0494ZM152.891 82.5494C152.891 87.7961 148.638 92.0494 143.391 92.0494V97.0494C151.399 97.0494 157.891 90.5576 157.891 82.5494H152.891ZM152.891 63.02V82.5494H157.891V63.02H152.891ZM143.391 53.52C148.638 53.52 152.891 57.7733 152.891 63.02H157.891C157.891 55.0119 151.399 48.52 143.391 48.52V53.52ZM82.2471 53.52H143.391V48.52H82.2471V53.52Z" fill="#7E92BD" mask="url(#path-8-inside-2_140_620)"/>
<path d="M112.722 113.102L96.22 140.638L112.722 150.351M112.722 113.102L129.414 140.638L112.722 150.351M112.722 113.102V133.062V150.351M112.722 170.065L96.2197 146.831L112.722 156.681M112.722 170.065L129.414 146.831L112.722 156.681M112.722 170.065V156.681" stroke="white" stroke-width="2" stroke-linejoin="round"/>
<circle cx="60.1084" cy="46.7051" r="24" fill="#7E92BD"/>
<path d="M67.3877 39.4277L52.833 53.9823M52.833 39.4277L67.3876 53.9823" stroke="#3A4A6E" stroke-width="4" stroke-linecap="round"/>
</svg>
