<svg width="25" height="24" viewBox="0 0 25 24" fill="none" xmlns="http://www.w3.org/2000/svg">
<path fill-rule="evenodd" clip-rule="evenodd" d="M9.15116 0H10.2674C13.4247 0 15.0034 0 15.9842 1.0163C16.9651 2.03261 16.9651 3.66832 16.9651 6.93976V16.4819H18.7192C20.0623 16.4819 21.1512 17.6101 21.1512 19.0018V19.0843C21.1512 19.5634 21.526 19.9518 21.9884 19.9518C22.4507 19.9518 22.8256 19.5634 22.8256 19.0843V13.5904L21.4589 13.1183C20.7751 12.8822 20.314 12.2192 20.314 11.4725V8.6747C20.314 7.71651 21.0636 6.93976 21.9884 6.93976H22.8256V6.5031C22.8256 6.28908 22.8252 6.21553 22.8217 6.14831C22.7844 5.4606 22.4855 4.81625 21.9905 4.35647C21.942 4.31153 21.8869 4.26534 21.7256 4.13164L20.3491 2.99067C19.988 2.69138 19.9295 2.14548 20.2183 1.77139C20.5072 1.39727 21.0341 1.33662 21.3951 1.63591L22.7896 2.79184C22.9262 2.90502 23.0204 2.98311 23.1081 3.06462C23.9332 3.83091 24.4312 4.90482 24.4934 6.05102C24.5 6.17294 24.5 6.29796 24.5 6.47916V19.0843C24.5 20.5217 23.3755 21.6867 21.9884 21.6867C20.6013 21.6867 19.4767 20.5217 19.4767 19.0843V19.0018C19.4767 18.5683 19.1376 18.2169 18.7192 18.2169H16.9651V22.2651H18.2191C18.6815 22.2651 19.0564 22.6535 19.0564 23.1325C19.0564 23.6116 18.6815 24 18.2191 24H1.33721C0.874835 24 0.5 23.6116 0.5 23.1325C0.5 22.6535 0.874835 22.2651 1.33721 22.2651H2.45349V6.93976C2.45349 3.66832 2.45349 2.03261 3.43434 1.0163C4.41519 0 5.99385 0 9.15116 0ZM7.19767 16.4819C6.7353 16.4819 6.36047 16.8703 6.36047 17.3494C6.36047 17.8285 6.7353 18.2169 7.19767 18.2169H12.7791C13.2414 18.2169 13.6163 17.8285 13.6163 17.3494C13.6163 16.8703 13.2414 16.4819 12.7791 16.4819H7.19767ZM11.6628 4.62651H8.31395C7.26151 4.62651 6.7353 4.62651 6.40834 4.96527C6.0814 5.30405 6.0814 5.84928 6.0814 6.93976C6.0814 8.03024 6.0814 8.57547 6.40834 8.91425C6.7353 9.25301 7.26151 9.25301 8.31395 9.25301H11.6628C12.7152 9.25301 13.2414 9.25301 13.5684 8.91425C13.8953 8.57547 13.8953 8.03024 13.8953 6.93976C13.8953 5.84928 13.8953 5.30405 13.5684 4.96527C13.2414 4.62651 12.7152 4.62651 11.6628 4.62651Z" fill="white"/>
</svg>
