<svg width="250" height="251" viewBox="0 0 250 251" fill="none" xmlns="http://www.w3.org/2000/svg">
<g opacity="0.2">
<mask id="path-1-inside-1_140_724" fill="white">
<ellipse cx="52.5005" cy="199.952" rx="44.186" ry="7.41305"/>
</mask>
<ellipse cx="52.5005" cy="199.952" rx="44.186" ry="7.41305" fill="#161F30"/>
<path d="M85.567 199.952C85.567 195.638 88.1868 193.299 88.7388 192.847C89.4208 192.288 89.7512 192.248 89.1143 192.501C87.9493 192.963 85.605 193.606 81.9049 194.227C74.6835 195.439 64.2816 196.245 52.5005 196.245V218.484C65.1226 218.484 76.8137 217.631 85.5845 216.16C89.8805 215.439 94.007 214.485 97.3139 213.173C98.913 212.539 100.98 211.569 102.839 210.045C104.568 208.627 107.806 205.288 107.806 199.952H85.567ZM52.5005 196.245C40.7193 196.245 30.3174 195.439 23.096 194.227C19.3959 193.606 17.0516 192.963 15.8866 192.501C15.2498 192.248 15.5801 192.288 16.2621 192.847C16.8141 193.299 19.4339 195.638 19.4339 199.952H-2.80504C-2.80504 205.288 0.432999 208.627 2.16219 210.045C4.02138 211.569 6.08793 212.539 7.68699 213.173C10.9939 214.485 15.1204 215.439 19.4164 216.16C28.1872 217.631 39.8783 218.484 52.5005 218.484V196.245ZM19.4339 199.952C19.4339 204.265 16.8141 206.604 16.2621 207.057C15.5801 207.616 15.2498 207.655 15.8866 207.402C17.0516 206.94 19.3959 206.297 23.096 205.676C30.3174 204.465 40.7193 203.658 52.5005 203.658V181.419C39.8783 181.419 28.1872 182.272 19.4164 183.744C15.1204 184.464 10.9939 185.418 7.68699 186.73C6.08793 187.364 4.02138 188.334 2.16219 189.859C0.432999 191.276 -2.80504 194.615 -2.80504 199.952H19.4339ZM52.5005 203.658C64.2816 203.658 74.6835 204.465 81.9049 205.676C85.605 206.297 87.9493 206.94 89.1143 207.402C89.7512 207.655 89.4208 207.616 88.7388 207.057C88.1868 206.604 85.567 204.265 85.567 199.952H107.806C107.806 194.615 104.568 191.276 102.839 189.859C100.98 188.334 98.913 187.364 97.3139 186.73C94.007 185.418 89.8805 184.464 85.5845 183.744C76.8137 182.272 65.1226 181.419 52.5005 181.419V203.658Z" fill="#0C111A" mask="url(#path-1-inside-1_140_724)"/>
</g>
<rect x="51.006" y="64.2267" width="162.988" height="26.988" rx="6.49398" fill="#2E3C57"/>
<rect x="51.006" y="64.2267" width="162.988" height="26.988" rx="6.49398" stroke="#2E3C57" stroke-width="3.01204"/>
<rect x="33.75" y="69.9707" width="197.5" height="119.279" rx="13.2078" fill="#3F5173"/>
<rect x="33.75" y="69.9707" width="197.5" height="119.279" rx="13.2078" stroke="#7E92BD" stroke-width="2.5"/>
<path d="M173.509 122.181C173.509 118.879 176.186 116.202 179.488 116.202H231.009V143.702H179.488C176.186 143.702 173.509 141.025 173.509 137.723V122.181Z" fill="#3F5173"/>
<rect x="182.259" y="124.952" width="10" height="10" rx="5" fill="#7E92BD"/>
<path d="M173.509 122.181C173.509 118.879 176.186 116.202 179.488 116.202H231.009V143.702H179.488C176.186 143.702 173.509 141.025 173.509 137.723V122.181Z" stroke="#7E92BD" stroke-width="2.5"/>
<g clip-path="url(#clip0_140_724)">
<path d="M58.0108 127.183L91.4577 188.287C93.802 192.592 90.7731 197.907 85.9469 197.907H19.0531C14.2269 197.907 11.1981 192.592 13.5424 188.287L46.9893 127.183C49.3986 122.774 55.6015 122.774 58.0108 127.183Z" fill="#3F5173" stroke="white" stroke-width="2.5" stroke-linecap="round" stroke-linejoin="round"/>
<path d="M52.5 168.938V152.845" stroke="white" stroke-width="2.5" stroke-linecap="round" stroke-linejoin="round"/>
<path d="M52.5 185.871C54.433 185.871 56 184.304 56 182.371C56 180.438 54.433 178.871 52.5 178.871C50.567 178.871 49 180.438 49 182.371C49 184.304 50.567 185.871 52.5 185.871Z" fill="white"/>
</g>
<circle cx="95.9731" cy="211.071" r="3.7065" fill="white"/>
<circle cx="228.552" cy="206" r="3.7065" fill="white"/>
<circle cx="12.021" cy="78.7334" r="3.7065" fill="white"/>
<path d="M77.7625 23.9404L70.629 21.3167C70.4192 21.2393 70.2383 21.0994 70.1104 20.916C69.9826 20.7326 69.9141 20.5143 69.9141 20.2907C69.9141 20.0672 69.9826 19.8489 70.1104 19.6655C70.2383 19.482 70.4192 19.3422 70.629 19.2648L77.7625 16.6411C77.9111 16.5867 78.046 16.5006 78.1578 16.3888C78.2697 16.2769 78.3558 16.142 78.4102 15.9935L81.0338 8.85996C81.1112 8.6502 81.2511 8.46921 81.4345 8.34138C81.618 8.21355 81.8362 8.14502 82.0598 8.14502C82.2834 8.14502 82.5016 8.21355 82.685 8.34138C82.8685 8.46921 83.0083 8.6502 83.0858 8.85996L85.7094 15.9935C85.7638 16.142 85.8499 16.2769 85.9618 16.3888C86.0736 16.5006 86.2085 16.5867 86.357 16.6411L93.4906 19.2648C93.7003 19.3422 93.8813 19.482 94.0092 19.6655C94.137 19.8489 94.2055 20.0672 94.2055 20.2907C94.2055 20.5143 94.137 20.7326 94.0092 20.916C93.8813 21.0994 93.7003 21.2393 93.4906 21.3167L86.357 23.9404C86.2085 23.9948 86.0736 24.0809 85.9618 24.1927C85.8499 24.3046 85.7638 24.4395 85.7094 24.588L83.0858 31.7215C83.0083 31.9313 82.8685 32.1123 82.685 32.2401C82.5016 32.3679 82.2834 32.4365 82.0598 32.4365C81.8362 32.4365 81.618 32.3679 81.4345 32.2401C81.2511 32.1123 81.1112 31.9313 81.0338 31.7215L78.4102 24.588C78.3558 24.4395 78.2697 24.3046 78.1578 24.1927C78.046 24.0809 77.9111 23.9948 77.7625 23.9404Z" fill="#2AB5F0"/>
<circle cx="129.025" cy="36.143" r="3.7065" fill="white"/>
<path d="M167.443 220.232L161.015 217.868C160.826 217.798 160.663 217.672 160.548 217.507C160.433 217.342 160.371 217.145 160.371 216.944C160.371 216.742 160.433 216.546 160.548 216.38C160.663 216.215 160.826 216.089 161.015 216.019L167.443 213.655C167.577 213.606 167.698 213.529 167.799 213.428C167.9 213.327 167.977 213.206 168.026 213.072L170.39 206.644C170.46 206.455 170.586 206.292 170.751 206.177C170.917 206.062 171.113 206 171.315 206C171.516 206 171.713 206.062 171.878 206.177C172.043 206.292 172.169 206.455 172.239 206.644L174.603 213.072C174.652 213.206 174.73 213.327 174.831 213.428C174.931 213.529 175.053 213.606 175.187 213.655L181.614 216.019C181.803 216.089 181.966 216.215 182.082 216.38C182.197 216.546 182.258 216.742 182.258 216.944C182.258 217.145 182.197 217.342 182.082 217.507C181.966 217.672 181.803 217.798 181.614 217.868L175.187 220.232C175.053 220.281 174.931 220.359 174.831 220.459C174.73 220.56 174.652 220.682 174.603 220.816L172.239 227.243C172.169 227.432 172.043 227.595 171.878 227.71C171.713 227.826 171.516 227.887 171.315 227.887C171.113 227.887 170.917 227.826 170.751 227.71C170.586 227.595 170.46 227.432 170.39 227.243L168.026 220.816C167.977 220.682 167.9 220.56 167.799 220.459C167.698 220.359 167.577 220.281 167.443 220.232Z" fill="#2AB5F0"/>
<path d="M190.107 39.7929L182.974 37.1693C182.764 37.0918 182.583 36.952 182.455 36.7685C182.327 36.5851 182.259 36.3669 182.259 36.1433C182.259 35.9197 182.327 35.7015 182.455 35.518C182.583 35.3346 182.764 35.1947 182.974 35.1173L190.107 32.4937C190.256 32.4393 190.391 32.3532 190.503 32.2413C190.614 32.1295 190.701 31.9946 190.755 31.846L193.379 24.7125C193.456 24.5027 193.596 24.3218 193.779 24.1939C193.963 24.0661 194.181 23.9976 194.405 23.9976C194.628 23.9976 194.846 24.0661 195.03 24.1939C195.213 24.3218 195.353 24.5027 195.431 24.7125L198.054 31.846C198.109 31.9946 198.195 32.1295 198.306 32.2413C198.418 32.3532 198.553 32.4393 198.702 32.4937L205.835 35.1173C206.045 35.1947 206.226 35.3346 206.354 35.518C206.482 35.7015 206.55 35.9197 206.55 36.1433C206.55 36.3669 206.482 36.5851 206.354 36.7685C206.226 36.952 206.045 37.0918 205.835 37.1693L198.702 39.7929C198.553 39.8473 198.418 39.9334 198.306 40.0453C198.195 40.1571 198.109 40.292 198.054 40.4405L195.431 47.5741C195.353 47.7838 195.213 47.9648 195.03 48.0927C194.846 48.2205 194.628 48.289 194.405 48.289C194.181 48.289 193.963 48.2205 193.779 48.0927C193.596 47.9648 193.456 47.7838 193.379 47.5741L190.755 40.4405C190.701 40.292 190.614 40.1571 190.503 40.0453C190.391 39.9334 190.256 39.8473 190.107 39.7929Z" fill="#2AB5F0"/>
<defs>
<clipPath id="clip0_140_724">
<rect width="103" height="103" fill="white" transform="translate(1 103)"/>
</clipPath>
</defs>
</svg>
