<svg width="250" height="250" viewBox="0 0 250 250" fill="none" xmlns="http://www.w3.org/2000/svg">
<path opacity="0.2" d="M45.6227 211.463C42.8225 211.075 40.3063 210.666 38.0936 210.243C38.3908 210.186 38.6935 210.13 39.0016 210.073C40.965 210.566 43.1832 211.029 45.6227 211.463ZM28.2843 207.339C28.2911 207.338 28.3477 207.374 28.4336 207.448C28.3204 207.377 28.2775 207.339 28.2843 207.339ZM28.2843 213.147C28.2775 213.147 28.3204 213.109 28.4336 213.037C28.3477 213.112 28.2911 213.148 28.2843 213.147ZM189.4 213.147C189.393 213.148 189.337 213.112 189.251 213.037C189.364 213.109 189.407 213.147 189.4 213.147ZM197.4 203.147C197.393 203.148 197.337 203.112 197.251 203.037C197.364 203.109 197.407 203.147 197.4 203.147ZM195.499 190.623C191.767 189.635 187.022 188.76 181.524 188C183.128 188.166 184.677 188.34 186.168 188.52C190.569 189.051 194.396 189.632 197.591 190.243C196.921 190.371 196.224 190.498 195.499 190.623ZM46.2843 187.339C46.2911 187.338 46.3477 187.374 46.4336 187.448C46.3204 187.377 46.2775 187.339 46.2843 187.339ZM207.4 193.147C207.393 193.148 207.337 193.112 207.251 193.037C207.364 193.109 207.407 193.147 207.4 193.147ZM207.251 187.448C207.337 187.374 207.393 187.338 207.4 187.339C207.407 187.339 207.364 187.377 207.251 187.448ZM36.2843 197.339C36.2911 197.338 36.3477 197.374 36.4336 197.448C36.3204 197.377 36.2775 197.339 36.2843 197.339Z" fill="#161F30" stroke="#0C111A" stroke-width="11.1195"/>
<rect x="193.75" y="30.25" width="157.5" height="121.5" rx="13.2078" transform="rotate(90 193.75 30.25)" fill="#243148"/>
<rect x="193.75" y="30.25" width="157.5" height="121.5" rx="13.2078" transform="rotate(90 193.75 30.25)" stroke="#435270" stroke-width="2.5"/>
<rect x="182.75" y="41.25" width="157.5" height="121.5" rx="13.2078" transform="rotate(90 182.75 41.25)" fill="#2E3C57"/>
<rect x="182.75" y="41.25" width="157.5" height="121.5" rx="13.2078" transform="rotate(90 182.75 41.25)" stroke="#58688A" stroke-width="2.5"/>
<g clip-path="url(#clip0_162_796)">
<rect x="173" y="51" width="160" height="124" rx="14.4578" transform="rotate(90 173 51)" fill="#3F5173"/>
<path d="M79.3825 190.097H78.5885C78.574 189.994 78.5444 189.903 78.4997 189.823C78.4549 189.742 78.3975 189.673 78.3274 189.617C78.2574 189.56 78.1764 189.516 78.0845 189.486C77.9939 189.456 77.8954 189.441 77.7891 189.441C77.5969 189.441 77.4295 189.489 77.2869 189.584C77.1443 189.678 77.0338 189.816 76.9552 189.997C76.8767 190.177 76.8374 190.396 76.8374 190.654C76.8374 190.918 76.8767 191.141 76.9552 191.321C77.035 191.501 77.1461 191.637 77.2887 191.728C77.4314 191.82 77.5963 191.866 77.7836 191.866C77.8888 191.866 77.986 191.852 78.0755 191.825C78.1661 191.797 78.2465 191.756 78.3166 191.703C78.3867 191.649 78.4447 191.583 78.4906 191.506C78.5377 191.428 78.5704 191.34 78.5885 191.241L79.3825 191.244C79.3619 191.415 79.3106 191.579 79.2284 191.738C79.1474 191.895 79.038 192.035 78.9003 192.16C78.7637 192.283 78.6006 192.381 78.4108 192.454C78.2223 192.525 78.009 192.561 77.7709 192.561C77.4398 192.561 77.1437 192.486 76.8827 192.336C76.6229 192.186 76.4174 191.969 76.2664 191.685C76.1165 191.401 76.0416 191.057 76.0416 190.654C76.0416 190.249 76.1177 189.904 76.27 189.62C76.4223 189.336 76.6289 189.12 76.8899 188.971C77.151 188.821 77.4446 188.747 77.7709 188.747C77.986 188.747 78.1854 188.777 78.3691 188.837C78.554 188.898 78.7178 188.986 78.8604 189.102C79.003 189.217 79.119 189.357 79.2084 189.524C79.2991 189.691 79.3571 189.882 79.3825 190.097ZM80.7248 192.562C80.5471 192.562 80.3888 192.532 80.2498 192.47C80.1109 192.407 80.0009 192.315 79.9199 192.193C79.8402 192.069 79.8003 191.916 79.8003 191.732C79.8003 191.577 79.8287 191.448 79.8855 191.342C79.9423 191.237 80.0196 191.153 80.1175 191.089C80.2154 191.025 80.3266 190.976 80.4511 190.944C80.5767 190.911 80.7085 190.888 80.8462 190.875C81.0082 190.858 81.1387 190.842 81.2378 190.828C81.3369 190.812 81.4088 190.789 81.4535 190.759C81.4982 190.728 81.5206 190.684 81.5206 190.625V190.614C81.5206 190.499 81.4843 190.41 81.4118 190.347C81.3405 190.284 81.239 190.253 81.1073 190.253C80.9683 190.253 80.8577 190.284 80.7755 190.345C80.6934 190.406 80.639 190.482 80.6124 190.574L79.8982 190.516C79.9344 190.347 80.0057 190.2 80.1121 190.077C80.2184 189.953 80.3556 189.857 80.5236 189.791C80.6928 189.723 80.8885 189.689 81.1109 189.689C81.2656 189.689 81.4136 189.707 81.555 189.744C81.6976 189.78 81.8239 189.836 81.9339 189.912C82.0451 189.988 82.1327 190.086 82.1967 190.206C82.2608 190.324 82.2928 190.466 82.2928 190.632V192.51H81.5605V192.124H81.5387C81.494 192.211 81.4342 192.287 81.3592 192.354C81.2843 192.419 81.1943 192.47 81.0891 192.508C80.984 192.544 80.8626 192.562 80.7248 192.562ZM80.9459 192.029C81.0595 192.029 81.1598 192.007 81.2469 191.962C81.3339 191.916 81.4021 191.855 81.4517 191.777C81.5012 191.7 81.526 191.612 81.526 191.515V191.219C81.5018 191.235 81.4686 191.249 81.4263 191.263C81.3852 191.275 81.3387 191.286 81.2867 191.297C81.2348 191.307 81.1828 191.316 81.1308 191.324C81.0789 191.331 81.0317 191.338 80.9894 191.344C80.8988 191.357 80.8197 191.379 80.752 191.408C80.6843 191.437 80.6317 191.476 80.5943 191.525C80.5568 191.574 80.5381 191.634 80.5381 191.707C80.5381 191.812 80.5761 191.892 80.6523 191.948C80.7296 192.002 80.8275 192.029 80.9459 192.029ZM83.6641 190.9V192.51H82.8919V189.725H83.6279V190.217H83.6605C83.7221 190.055 83.8255 189.927 83.9705 189.832C84.1155 189.737 84.2913 189.689 84.498 189.689C84.6914 189.689 84.8599 189.731 85.0037 189.816C85.1476 189.901 85.2593 190.021 85.3391 190.179C85.4189 190.334 85.4587 190.521 85.4587 190.737V192.51H84.6865V190.875C84.6877 190.704 84.6442 190.571 84.556 190.476C84.4678 190.379 84.3463 190.331 84.1916 190.331C84.0877 190.331 83.9959 190.353 83.9161 190.398C83.8376 190.443 83.7759 190.508 83.7312 190.594C83.6877 190.678 83.6653 190.78 83.6641 190.9ZM87.3254 192.564C87.0402 192.564 86.7949 192.504 86.5894 192.383C86.3852 192.261 86.2281 192.092 86.1181 191.875C86.0094 191.659 85.955 191.41 85.955 191.128C85.955 190.843 86.01 190.593 86.1199 190.378C86.2311 190.162 86.3888 189.993 86.5931 189.872C86.7973 189.75 87.0402 189.689 87.3218 189.689C87.5647 189.689 87.7774 189.733 87.9599 189.821C88.1423 189.91 88.2868 190.034 88.3931 190.193C88.4995 190.353 88.5581 190.54 88.5689 190.755H87.8402C87.8197 190.616 87.7653 190.504 87.6771 190.42C87.5901 190.334 87.4759 190.291 87.3345 190.291C87.2148 190.291 87.1103 190.324 87.0209 190.389C86.9326 190.453 86.8638 190.547 86.8142 190.67C86.7647 190.793 86.7399 190.942 86.7399 191.118C86.7399 191.295 86.7641 191.446 86.8124 191.571C86.8619 191.695 86.9314 191.79 87.0209 191.855C87.1103 191.921 87.2148 191.953 87.3345 191.953C87.4227 191.953 87.5018 191.935 87.5719 191.899C87.6432 191.863 87.7018 191.81 87.7478 191.741C87.7949 191.671 87.8257 191.587 87.8402 191.489H88.5689C88.5569 191.702 88.4988 191.889 88.3949 192.051C88.2922 192.212 88.1502 192.338 87.9689 192.428C87.7877 192.519 87.5731 192.564 87.3254 192.564ZM90.3323 192.564C90.0459 192.564 89.7993 192.506 89.5927 192.39C89.3872 192.273 89.2289 192.107 89.1177 191.893C89.0066 191.678 88.951 191.424 88.951 191.13C88.951 190.844 89.0066 190.592 89.1177 190.376C89.2289 190.16 89.3854 189.991 89.5872 189.87C89.7903 189.75 90.0283 189.689 90.3015 189.689C90.4852 189.689 90.6562 189.719 90.8145 189.778C90.974 189.836 91.113 189.924 91.2314 190.041C91.351 190.158 91.4441 190.305 91.5106 190.483C91.577 190.66 91.6103 190.866 91.6103 191.103V191.315H89.2591V190.837H90.8833C90.8833 190.725 90.8592 190.627 90.8108 190.541C90.7625 190.455 90.6954 190.388 90.6096 190.34C90.525 190.29 90.4265 190.266 90.3141 190.266C90.1969 190.266 90.093 190.293 90.0024 190.347C89.9129 190.4 89.8428 190.472 89.7921 190.563C89.7413 190.652 89.7153 190.752 89.7141 190.862V191.317C89.7141 191.455 89.7395 191.574 89.7903 191.674C89.8422 191.774 89.9153 191.852 90.0096 191.906C90.1039 191.961 90.2157 191.988 90.345 191.988C90.4308 191.988 90.5093 191.976 90.5806 191.951C90.6519 191.927 90.713 191.891 90.7637 191.843C90.8145 191.794 90.8531 191.735 90.8797 191.665L91.5939 191.712C91.5577 191.884 91.4834 192.034 91.371 192.162C91.2598 192.289 91.116 192.388 90.9395 192.459C90.7643 192.529 90.5619 192.564 90.3323 192.564ZM92.8864 188.797V192.51H92.1142V188.797H92.8864Z" fill="#A5B5D6"/>
<rect x="62.25" y="184.25" width="45.0685" height="12.5196" rx="6.25979" stroke="#A5B5D6" stroke-width="0.5"/>
<rect x="115.012" y="184" width="45.5685" height="13.0196" rx="6.50979" fill="#A5B5D6"/>
<path d="M134.133 189.865C134.118 189.719 134.056 189.605 133.946 189.524C133.836 189.443 133.687 189.403 133.498 189.403C133.37 189.403 133.262 189.421 133.174 189.457C133.085 189.492 133.018 189.541 132.971 189.604C132.925 189.667 132.902 189.738 132.902 189.818C132.899 189.884 132.913 189.942 132.943 189.992C132.975 190.041 133.018 190.084 133.072 190.121C133.126 190.156 133.189 190.186 133.261 190.213C133.332 190.238 133.408 190.26 133.489 190.278L133.823 190.358C133.984 190.394 134.133 190.443 134.268 190.503C134.404 190.563 134.521 190.638 134.62 190.726C134.719 190.814 134.796 190.918 134.85 191.038C134.906 191.157 134.934 191.295 134.936 191.449C134.934 191.677 134.876 191.873 134.762 192.04C134.648 192.206 134.484 192.335 134.268 192.426C134.055 192.517 133.797 192.562 133.494 192.562C133.195 192.562 132.934 192.516 132.711 192.425C132.49 192.333 132.317 192.197 132.193 192.017C132.07 191.835 132.005 191.611 131.999 191.344H132.758C132.767 191.469 132.803 191.573 132.865 191.656C132.929 191.738 133.015 191.8 133.121 191.843C133.229 191.884 133.35 191.904 133.485 191.904C133.618 191.904 133.734 191.885 133.832 191.846C133.931 191.808 134.007 191.754 134.062 191.685C134.116 191.616 134.143 191.537 134.143 191.448C134.143 191.364 134.119 191.294 134.069 191.237C134.021 191.18 133.949 191.132 133.855 191.092C133.762 191.052 133.648 191.016 133.513 190.983L133.108 190.882C132.795 190.806 132.548 190.687 132.367 190.525C132.186 190.363 132.096 190.145 132.097 189.87C132.096 189.646 132.155 189.449 132.276 189.281C132.398 189.113 132.566 188.982 132.778 188.888C132.991 188.794 133.233 188.747 133.503 188.747C133.779 188.747 134.02 188.794 134.225 188.888C134.432 188.982 134.592 189.113 134.707 189.281C134.822 189.449 134.881 189.644 134.885 189.865H134.133ZM135.449 192.51V189.725H136.221V192.51H135.449ZM135.837 189.366C135.722 189.366 135.624 189.328 135.541 189.252C135.46 189.175 135.42 189.082 135.42 188.975C135.42 188.869 135.46 188.777 135.541 188.701C135.624 188.624 135.722 188.585 135.837 188.585C135.952 188.585 136.05 188.624 136.131 188.701C136.213 188.777 136.254 188.869 136.254 188.975C136.254 189.082 136.213 189.175 136.131 189.252C136.05 189.328 135.952 189.366 135.837 189.366ZM138.094 193.612C137.844 193.612 137.63 193.577 137.451 193.509C137.273 193.441 137.132 193.348 137.027 193.231C136.921 193.114 136.853 192.982 136.822 192.836L137.536 192.74C137.558 192.796 137.592 192.848 137.639 192.896C137.686 192.944 137.749 192.983 137.826 193.012C137.905 193.042 138 193.057 138.112 193.057C138.28 193.057 138.419 193.016 138.527 192.934C138.637 192.853 138.692 192.717 138.692 192.526V192.017H138.66C138.626 192.094 138.575 192.167 138.508 192.236C138.44 192.305 138.353 192.361 138.247 192.405C138.14 192.448 138.013 192.47 137.866 192.47C137.657 192.47 137.466 192.422 137.295 192.325C137.124 192.227 136.988 192.078 136.887 191.877C136.787 191.675 136.737 191.42 136.737 191.112C136.737 190.797 136.788 190.533 136.891 190.322C136.993 190.11 137.13 189.952 137.3 189.847C137.472 189.742 137.66 189.689 137.864 189.689C138.02 189.689 138.15 189.716 138.256 189.769C138.361 189.821 138.445 189.886 138.509 189.965C138.575 190.042 138.625 190.118 138.66 190.193H138.689V189.725H139.456V192.537C139.456 192.774 139.398 192.972 139.282 193.132C139.166 193.291 139.005 193.411 138.799 193.49C138.595 193.571 138.36 193.612 138.094 193.612ZM138.111 191.89C138.235 191.89 138.34 191.859 138.426 191.797C138.513 191.735 138.579 191.645 138.625 191.529C138.673 191.412 138.696 191.272 138.696 191.109C138.696 190.945 138.673 190.804 138.627 190.684C138.581 190.563 138.515 190.47 138.428 190.403C138.341 190.337 138.235 190.304 138.111 190.304C137.984 190.304 137.877 190.338 137.79 190.407C137.703 190.475 137.637 190.569 137.592 190.69C137.547 190.811 137.525 190.95 137.525 191.109C137.525 191.269 137.547 191.408 137.592 191.525C137.638 191.641 137.704 191.731 137.79 191.796C137.877 191.858 137.984 191.89 138.111 191.89ZM140.842 190.9V192.51H140.07V189.725H140.806V190.217H140.839C140.9 190.055 141.004 189.927 141.149 189.832C141.294 189.737 141.47 189.689 141.676 189.689C141.87 189.689 142.038 189.731 142.182 189.816C142.326 189.901 142.438 190.021 142.517 190.179C142.597 190.334 142.637 190.521 142.637 190.737V192.51H141.865V190.875C141.866 190.704 141.822 190.571 141.734 190.476C141.646 190.379 141.525 190.331 141.37 190.331C141.266 190.331 141.174 190.353 141.094 190.398C141.016 190.443 140.954 190.508 140.909 190.594C140.866 190.678 140.844 190.78 140.842 190.9Z" fill="#293853"/>
</g>
<rect x="171.75" y="52.25" width="157.5" height="121.5" rx="13.2078" transform="rotate(90 171.75 52.25)" stroke="#7E92BD" stroke-width="2.5"/>
<rect x="138" y="88" width="54" height="54" rx="6" transform="rotate(90 138 88)" fill="#2E3C57"/>
<path d="M125.418 100L112.917 109.25L115.242 103.799L125.418 100Z" fill="#798CB2"/>
<path d="M96.583 100L108.973 109.336L106.759 103.799L96.583 100Z" fill="#798CB2"/>
<path d="M120.917 121.447L117.591 126.528L124.713 128.489L126.753 121.558L120.917 121.447Z" fill="#889ABF"/>
<path d="M95.2598 121.558L97.2876 128.489L104.397 126.528L101.084 121.447L95.2598 121.558Z" fill="#889ABF"/>
<path d="M104.014 112.864L102.036 115.848L109.084 116.169L108.849 108.584L104.014 112.864Z" fill="#798CB3"/>
<path d="M117.987 112.863L113.078 108.498L112.917 116.169L119.965 115.848L117.987 112.863Z" fill="#798CB3"/>
<path d="M104.397 126.528L108.663 124.469L104.991 121.607L104.397 126.528Z" fill="#798CB2"/>
<path d="M113.337 124.469L117.59 126.528L117.009 121.607L113.337 124.469Z" fill="#798CB2"/>
<path d="M117.59 126.529L113.337 124.469L113.683 127.232L113.646 128.403L117.59 126.529Z" fill="#A5B5D6"/>
<path d="M104.397 126.529L108.354 128.403L108.329 127.232L108.663 124.469L104.397 126.529Z" fill="#A5B5D6"/>
<path d="M108.428 119.782L104.892 118.746L107.389 117.599L108.428 119.782Z" fill="#3F5173"/>
<path d="M113.572 119.782L114.611 117.599L117.121 118.746L113.572 119.782Z" fill="#3F5173"/>
<path d="M104.398 126.528L105.016 121.447L101.084 121.558L104.398 126.528Z" fill="#5F75A1"/>
<path d="M116.984 121.447L117.59 126.528L120.916 121.558L116.984 121.447Z" fill="#5F75A1"/>
<path d="M119.965 115.848L112.917 116.168L113.572 119.782L114.611 117.599L117.121 118.746L119.965 115.848Z" fill="#5F75A1"/>
<path d="M104.892 118.746L107.39 117.599L108.429 119.782L109.084 116.168L102.036 115.848L104.892 118.746Z" fill="#5F75A1"/>
<path d="M102.037 115.848L104.992 121.607L104.893 118.746L102.037 115.848Z" fill="#889ABF"/>
<path d="M117.121 118.746L117.01 121.607L119.965 115.848L117.121 118.746Z" fill="#889ABF"/>
<path d="M109.084 116.168L108.429 119.782L109.257 124.049L109.443 118.425L109.084 116.168Z" fill="#889ABF"/>
<path d="M112.917 116.168L112.57 118.413L112.743 124.049L113.572 119.782L112.917 116.168Z" fill="#889ABF"/>
<path d="M113.573 119.782L112.744 124.049L113.338 124.469L117.01 121.607L117.121 118.746L113.573 119.782Z" fill="#A5B5D6"/>
<path d="M104.892 118.746L104.991 121.607L108.663 124.469L109.256 124.049L108.428 119.782L104.892 118.746Z" fill="#A5B5D6"/>
<path d="M113.646 128.403L113.683 127.231L113.362 126.96H108.639L108.329 127.231L108.354 128.403L104.397 126.528L105.782 127.663L108.589 129.599H113.399L116.218 127.663L117.591 126.528L113.646 128.403Z" fill="#889ABF"/>
<path d="M113.338 124.469L112.744 124.049H109.257L108.664 124.469L108.33 127.231L108.639 126.96H113.363L113.684 127.231L113.338 124.469Z" fill="#3F5173"/>
<path d="M125.949 109.854L127 104.748L125.417 100L113.337 108.941L117.986 112.863L124.552 114.775L125.998 113.085L125.368 112.629L126.369 111.716L125.603 111.124L126.604 110.36L125.949 109.854Z" fill="#596D94"/>
<path d="M95 104.748L96.0634 109.854L95.3833 110.36L96.3972 111.124L95.6306 111.716L96.6322 112.629L96.0015 113.085L97.4482 114.775L104.014 112.863L108.663 108.941L96.5827 100L95 104.748Z" fill="#596D94"/>
<path d="M124.552 114.775L117.987 112.864L119.965 115.848L117.01 121.608L120.917 121.559H126.753L124.552 114.775Z" fill="#A5B5D6"/>
<path d="M104.014 112.864L97.4483 114.775L95.2598 121.559H101.084L104.991 121.608L102.036 115.848L104.014 112.864Z" fill="#A5B5D6"/>
<path d="M112.916 116.169L113.337 108.942L115.241 103.799H106.759L108.663 108.942L109.083 116.169L109.244 118.438L109.256 124.05H112.743L112.756 118.438L112.916 116.169Z" fill="#A5B5D6"/>
<circle cx="208.706" cy="214.706" r="3.7065" fill="white"/>
<circle cx="31.7065" cy="101.706" r="3.7065" fill="white"/>
<circle cx="213.706" cy="33.7065" r="3.7065" fill="white"/>
<circle cx="109.706" cy="236.706" r="3.7065" fill="white"/>
<path d="M27.0717 176.232L20.6442 173.868C20.4552 173.798 20.2921 173.672 20.1769 173.507C20.0617 173.342 20 173.145 20 172.944C20 172.742 20.0617 172.546 20.1769 172.38C20.2921 172.215 20.4552 172.089 20.6442 172.019L27.0717 169.655C27.2056 169.606 27.3271 169.529 27.4279 169.428C27.5287 169.327 27.6063 169.206 27.6553 169.072L30.0192 162.644C30.089 162.455 30.215 162.292 30.3803 162.177C30.5456 162.062 30.7422 162 30.9437 162C31.1451 162 31.3418 162.062 31.5071 162.177C31.6723 162.292 31.7984 162.455 31.8681 162.644L34.2321 169.072C34.2811 169.206 34.3587 169.327 34.4595 169.428C34.5603 169.529 34.6818 169.606 34.8156 169.655L41.2432 172.019C41.4322 172.089 41.5953 172.215 41.7104 172.38C41.8256 172.546 41.8874 172.742 41.8874 172.944C41.8874 173.145 41.8256 173.342 41.7104 173.507C41.5953 173.672 41.4322 173.798 41.2432 173.868L34.8156 176.232C34.6818 176.281 34.5603 176.359 34.4595 176.459C34.3587 176.56 34.2811 176.682 34.2321 176.816L31.8681 183.243C31.7984 183.432 31.6723 183.595 31.5071 183.71C31.3418 183.826 31.1451 183.887 30.9437 183.887C30.7422 183.887 30.5456 183.826 30.3803 183.71C30.215 183.595 30.089 183.432 30.0192 183.243L27.6553 176.816C27.6063 176.682 27.5287 176.56 27.4279 176.459C27.3271 176.359 27.2056 176.281 27.0717 176.232Z" fill="#2AB5F0"/>
<path d="M212.848 108.795L205.715 106.172C205.505 106.094 205.324 105.954 205.196 105.771C205.069 105.588 205 105.369 205 105.146C205 104.922 205.069 104.704 205.196 104.52C205.324 104.337 205.505 104.197 205.715 104.12L212.848 101.496C212.997 101.442 213.132 101.356 213.244 101.244C213.356 101.132 213.442 100.997 213.496 100.848L216.12 93.7149C216.197 93.5052 216.337 93.3242 216.52 93.1964C216.704 93.0685 216.922 93 217.146 93C217.369 93 217.588 93.0685 217.771 93.1964C217.954 93.3242 218.094 93.5052 218.172 93.7149L220.795 100.848C220.85 100.997 220.936 101.132 221.048 101.244C221.16 101.356 221.294 101.442 221.443 101.496L228.577 104.12C228.786 104.197 228.967 104.337 229.095 104.52C229.223 104.704 229.291 104.922 229.291 105.146C229.291 105.369 229.223 105.588 229.095 105.771C228.967 105.954 228.786 106.094 228.577 106.172L221.443 108.795C221.294 108.85 221.16 108.936 221.048 109.048C220.936 109.16 220.85 109.294 220.795 109.443L218.172 116.577C218.094 116.786 217.954 116.967 217.771 117.095C217.588 117.223 217.369 117.291 217.146 117.291C216.922 117.291 216.704 117.223 216.52 117.095C216.337 116.967 216.197 116.786 216.12 116.577L213.496 109.443C213.442 109.294 213.356 109.16 213.244 109.048C213.132 108.936 212.997 108.85 212.848 108.795Z" fill="#2AB5F0"/>
<path d="M39.8485 25.7954L32.7149 23.1717C32.5052 23.0943 32.3242 22.9544 32.1964 22.771C32.0685 22.5875 32 22.3693 32 22.1457C32 21.9221 32.0685 21.7039 32.1964 21.5205C32.3242 21.337 32.5052 21.1972 32.7149 21.1197L39.8485 18.4961C39.997 18.4417 40.1319 18.3556 40.2438 18.2437C40.3556 18.1319 40.4417 17.997 40.4961 17.8485L43.1197 10.7149C43.1972 10.5052 43.337 10.3242 43.5205 10.1964C43.7039 10.0685 43.9221 10 44.1457 10C44.3693 10 44.5875 10.0685 44.771 10.1964C44.9544 10.3242 45.0943 10.5052 45.1717 10.7149L47.7954 17.8485C47.8497 17.997 47.9359 18.1319 48.0477 18.2437C48.1596 18.3556 48.2944 18.4417 48.443 18.4961L55.5765 21.1197C55.7863 21.1972 55.9673 21.337 56.0951 21.5205C56.2229 21.7039 56.2915 21.9221 56.2915 22.1457C56.2915 22.3693 56.2229 22.5875 56.0951 22.771C55.9673 22.9544 55.7863 23.0943 55.5765 23.1717L48.443 25.7954C48.2944 25.8497 48.1596 25.9359 48.0477 26.0477C47.9359 26.1596 47.8497 26.2944 47.7954 26.443L45.1717 33.5765C45.0943 33.7863 44.9544 33.9673 44.771 34.0951C44.5875 34.2229 44.3693 34.2915 44.1457 34.2915C43.9221 34.2915 43.7039 34.2229 43.5205 34.0951C43.337 33.9673 43.1972 33.7863 43.1197 33.5765L40.4961 26.443C40.4417 26.2944 40.3556 26.1596 40.2438 26.0477C40.1319 25.9359 39.997 25.8497 39.8485 25.7954Z" fill="#2AB5F0"/>
<defs>
<clipPath id="clip0_162_796">
<rect x="173" y="51" width="160" height="124" rx="14.4578" transform="rotate(90 173 51)" fill="white"/>
</clipPath>
</defs>
</svg>
