<svg width="250" height="250" viewBox="0 0 250 250" fill="none" xmlns="http://www.w3.org/2000/svg">
<g opacity="0.2">
<mask id="path-1-inside-1_173_506" fill="white">
<ellipse cx="124.994" cy="205" rx="75.8906" ry="8.52979"/>
</mask>
<ellipse cx="124.994" cy="205" rx="75.8906" ry="8.52979" fill="#161F30"/>
<path d="M189.765 205C189.765 201.711 191.298 199.463 192.242 198.417C193.13 197.435 193.916 197.013 193.99 196.973C194.153 196.883 193.679 197.145 192.065 197.574C189.013 198.385 184.091 199.231 177.415 199.982C164.209 201.466 145.671 202.41 124.994 202.41V224.649C146.231 224.649 165.638 223.684 179.899 222.081C186.957 221.288 193.148 220.297 197.777 219.067C200.003 218.475 202.511 217.665 204.696 216.465C205.78 215.87 207.338 214.883 208.743 213.327C210.206 211.708 212.004 208.877 212.004 205H189.765ZM124.994 202.41C104.317 202.41 85.7791 201.466 72.5733 199.982C65.8976 199.231 60.975 198.385 57.9231 197.574C56.3093 197.145 55.8353 196.883 55.9985 196.973C56.0718 197.013 56.8581 197.435 57.7458 198.417C58.6903 199.463 60.223 201.711 60.223 205H37.984C37.984 208.877 39.7822 211.708 41.2449 213.327C42.6508 214.883 44.208 215.87 45.2922 216.465C47.4772 217.665 49.9852 218.475 52.2117 219.067C56.8403 220.297 63.0317 221.288 70.0894 222.081C84.3507 223.684 103.758 224.649 124.994 224.649V202.41ZM60.223 205C60.223 208.289 58.6903 210.537 57.7458 211.583C56.8581 212.565 56.0718 212.987 55.9985 213.027C55.8353 213.117 56.3093 212.855 57.9231 212.426C60.975 211.615 65.8976 210.769 72.5733 210.018C85.7791 208.534 104.317 207.59 124.994 207.59V185.351C103.758 185.351 84.3507 186.316 70.0894 187.919C63.0317 188.712 56.8403 189.703 52.2117 190.933C49.9852 191.525 47.4772 192.335 45.2922 193.535C44.208 194.13 42.6508 195.117 41.2449 196.673C39.7822 198.292 37.984 201.123 37.984 205H60.223ZM124.994 207.59C145.671 207.59 164.209 208.534 177.415 210.018C184.091 210.769 189.013 211.615 192.065 212.426C193.679 212.855 194.153 213.117 193.99 213.027C193.916 212.987 193.13 212.565 192.242 211.583C191.298 210.537 189.765 208.289 189.765 205H212.004C212.004 201.123 210.206 198.292 208.743 196.673C207.338 195.117 205.78 194.13 204.696 193.535C202.511 192.335 200.003 191.525 197.777 190.933C193.148 189.703 186.957 188.712 179.899 187.919C165.638 186.316 146.231 185.351 124.994 185.351V207.59Z" fill="#0C111A" mask="url(#path-1-inside-1_173_506)"/>
</g>
<g clip-path="url(#clip0_173_506)">
<rect x="187" y="45" width="160" height="124" rx="14.4578" transform="rotate(90 187 45)" fill="#3F5173"/>
<path d="M93.3825 184.097H92.5885C92.574 183.994 92.5444 183.903 92.4997 183.823C92.4549 183.742 92.3975 183.673 92.3274 183.617C92.2574 183.56 92.1764 183.516 92.0845 183.486C91.9939 183.456 91.8954 183.441 91.7891 183.441C91.5969 183.441 91.4295 183.489 91.2869 183.584C91.1443 183.678 91.0338 183.816 90.9552 183.997C90.8767 184.177 90.8374 184.396 90.8374 184.654C90.8374 184.918 90.8767 185.141 90.9552 185.321C91.035 185.501 91.1461 185.637 91.2887 185.728C91.4314 185.82 91.5963 185.866 91.7836 185.866C91.8888 185.866 91.986 185.852 92.0755 185.825C92.1661 185.797 92.2465 185.756 92.3166 185.703C92.3867 185.649 92.4447 185.583 92.4906 185.506C92.5377 185.428 92.5704 185.34 92.5885 185.241L93.3825 185.244C93.3619 185.415 93.3106 185.579 93.2284 185.738C93.1474 185.895 93.038 186.035 92.9003 186.16C92.7637 186.283 92.6006 186.381 92.4108 186.454C92.2223 186.525 92.009 186.561 91.7709 186.561C91.4398 186.561 91.1437 186.486 90.8827 186.336C90.6229 186.186 90.4174 185.969 90.2664 185.685C90.1165 185.401 90.0416 185.057 90.0416 184.654C90.0416 184.249 90.1177 183.904 90.27 183.62C90.4223 183.336 90.6289 183.12 90.8899 182.971C91.151 182.821 91.4446 182.747 91.7709 182.747C91.986 182.747 92.1854 182.777 92.3691 182.837C92.554 182.898 92.7178 182.986 92.8604 183.102C93.003 183.217 93.119 183.357 93.2084 183.524C93.2991 183.691 93.3571 183.882 93.3825 184.097ZM94.7248 186.562C94.5471 186.562 94.3888 186.532 94.2498 186.47C94.1109 186.407 94.0009 186.315 93.9199 186.193C93.8402 186.069 93.8003 185.916 93.8003 185.732C93.8003 185.577 93.8287 185.448 93.8855 185.342C93.9423 185.237 94.0196 185.153 94.1175 185.089C94.2154 185.025 94.3266 184.976 94.4511 184.944C94.5767 184.911 94.7085 184.888 94.8462 184.875C95.0082 184.858 95.1387 184.842 95.2378 184.828C95.3369 184.812 95.4088 184.789 95.4535 184.759C95.4982 184.728 95.5206 184.684 95.5206 184.625V184.614C95.5206 184.499 95.4843 184.41 95.4118 184.347C95.3405 184.284 95.239 184.253 95.1073 184.253C94.9683 184.253 94.8577 184.284 94.7755 184.345C94.6934 184.406 94.639 184.482 94.6124 184.574L93.8982 184.516C93.9344 184.347 94.0057 184.2 94.1121 184.077C94.2184 183.953 94.3556 183.857 94.5236 183.791C94.6928 183.723 94.8885 183.689 95.1109 183.689C95.2656 183.689 95.4136 183.707 95.555 183.744C95.6976 183.78 95.8239 183.836 95.9339 183.912C96.0451 183.988 96.1327 184.086 96.1967 184.206C96.2608 184.324 96.2928 184.466 96.2928 184.632V186.51H95.5605V186.124H95.5387C95.494 186.211 95.4342 186.287 95.3592 186.354C95.2843 186.419 95.1943 186.47 95.0891 186.508C94.984 186.544 94.8626 186.562 94.7248 186.562ZM94.9459 186.029C95.0595 186.029 95.1598 186.007 95.2469 185.962C95.3339 185.916 95.4021 185.855 95.4517 185.777C95.5012 185.7 95.526 185.612 95.526 185.515V185.219C95.5018 185.235 95.4686 185.249 95.4263 185.263C95.3852 185.275 95.3387 185.286 95.2867 185.297C95.2348 185.307 95.1828 185.316 95.1308 185.324C95.0789 185.331 95.0317 185.338 94.9894 185.344C94.8988 185.357 94.8197 185.379 94.752 185.408C94.6843 185.437 94.6317 185.476 94.5943 185.525C94.5568 185.574 94.5381 185.634 94.5381 185.707C94.5381 185.812 94.5761 185.892 94.6523 185.948C94.7296 186.002 94.8275 186.029 94.9459 186.029ZM97.6641 184.9V186.51H96.8919V183.725H97.6279V184.217H97.6605C97.7221 184.055 97.8255 183.927 97.9705 183.832C98.1155 183.737 98.2913 183.689 98.498 183.689C98.6914 183.689 98.8599 183.731 99.0037 183.816C99.1476 183.901 99.2593 184.021 99.3391 184.179C99.4189 184.334 99.4587 184.521 99.4587 184.737V186.51H98.6865V184.875C98.6877 184.704 98.6442 184.571 98.556 184.476C98.4678 184.379 98.3463 184.331 98.1916 184.331C98.0877 184.331 97.9959 184.353 97.9161 184.398C97.8376 184.443 97.7759 184.508 97.7312 184.594C97.6877 184.678 97.6653 184.78 97.6641 184.9ZM101.325 186.564C101.04 186.564 100.795 186.504 100.589 186.383C100.385 186.261 100.228 186.092 100.118 185.875C100.009 185.659 99.955 185.41 99.955 185.128C99.955 184.843 100.01 184.593 100.12 184.378C100.231 184.162 100.389 183.993 100.593 183.872C100.797 183.75 101.04 183.689 101.322 183.689C101.565 183.689 101.777 183.733 101.96 183.821C102.142 183.91 102.287 184.034 102.393 184.193C102.499 184.353 102.558 184.54 102.569 184.755H101.84C101.82 184.616 101.765 184.504 101.677 184.42C101.59 184.334 101.476 184.291 101.334 184.291C101.215 184.291 101.11 184.324 101.021 184.389C100.933 184.453 100.864 184.547 100.814 184.67C100.765 184.793 100.74 184.942 100.74 185.118C100.74 185.295 100.764 185.446 100.812 185.571C100.862 185.695 100.931 185.79 101.021 185.855C101.11 185.921 101.215 185.953 101.334 185.953C101.423 185.953 101.502 185.935 101.572 185.899C101.643 185.863 101.702 185.81 101.748 185.741C101.795 185.671 101.826 185.587 101.84 185.489H102.569C102.557 185.702 102.499 185.889 102.395 186.051C102.292 186.212 102.15 186.338 101.969 186.428C101.788 186.519 101.573 186.564 101.325 186.564ZM104.332 186.564C104.046 186.564 103.799 186.506 103.593 186.39C103.387 186.273 103.229 186.107 103.118 185.893C103.007 185.678 102.951 185.424 102.951 185.13C102.951 184.844 103.007 184.592 103.118 184.376C103.229 184.16 103.385 183.991 103.587 183.87C103.79 183.75 104.028 183.689 104.301 183.689C104.485 183.689 104.656 183.719 104.814 183.778C104.974 183.836 105.113 183.924 105.231 184.041C105.351 184.158 105.444 184.305 105.511 184.483C105.577 184.66 105.61 184.866 105.61 185.103V185.315H103.259V184.837H104.883C104.883 184.725 104.859 184.627 104.811 184.541C104.762 184.455 104.695 184.388 104.61 184.34C104.525 184.29 104.427 184.266 104.314 184.266C104.197 184.266 104.093 184.293 104.002 184.347C103.913 184.4 103.843 184.472 103.792 184.563C103.741 184.652 103.715 184.752 103.714 184.862V185.317C103.714 185.455 103.74 185.574 103.79 185.674C103.842 185.774 103.915 185.852 104.01 185.906C104.104 185.961 104.216 185.988 104.345 185.988C104.431 185.988 104.509 185.976 104.581 185.951C104.652 185.927 104.713 185.891 104.764 185.843C104.814 185.794 104.853 185.735 104.88 185.665L105.594 185.712C105.558 185.884 105.483 186.034 105.371 186.162C105.26 186.289 105.116 186.388 104.94 186.459C104.764 186.529 104.562 186.564 104.332 186.564ZM106.886 182.797V186.51H106.114V182.797H106.886Z" fill="#A5B5D6"/>
<rect x="76.25" y="178.25" width="45.0685" height="12.5196" rx="6.25979" stroke="#A5B5D6" stroke-width="0.5"/>
<rect x="129.012" y="178" width="45.5685" height="13.0196" rx="6.50979" fill="#A5B5D6"/>
<path d="M141.758 186.51H140.917L142.199 182.797H143.21L144.49 186.51H143.649L142.719 183.646H142.69L141.758 186.51ZM141.706 185.051H143.693V185.663H141.706V185.051ZM144.923 187.554V183.725H145.684V184.193H145.718C145.752 184.118 145.801 184.042 145.865 183.965C145.93 183.886 146.015 183.821 146.119 183.769C146.224 183.716 146.355 183.689 146.511 183.689C146.714 183.689 146.901 183.742 147.072 183.849C147.244 183.954 147.381 184.113 147.484 184.325C147.587 184.537 147.638 184.802 147.638 185.121C147.638 185.432 147.588 185.694 147.488 185.908C147.389 186.121 147.253 186.282 147.082 186.392C146.911 186.501 146.72 186.555 146.509 186.555C146.359 186.555 146.231 186.53 146.126 186.481C146.022 186.431 145.937 186.369 145.871 186.294C145.804 186.218 145.753 186.141 145.718 186.064H145.695V187.554H144.923ZM145.678 185.118C145.678 185.283 145.701 185.428 145.747 185.551C145.793 185.674 145.86 185.77 145.947 185.839C146.034 185.907 146.14 185.941 146.264 185.941C146.39 185.941 146.496 185.906 146.583 185.837C146.67 185.767 146.736 185.67 146.781 185.547C146.827 185.423 146.85 185.28 146.85 185.118C146.85 184.957 146.827 184.815 146.782 184.693C146.738 184.571 146.672 184.476 146.585 184.407C146.498 184.338 146.391 184.304 146.264 184.304C146.138 184.304 146.032 184.337 145.945 184.403C145.859 184.47 145.793 184.564 145.747 184.686C145.701 184.808 145.678 184.952 145.678 185.118ZM148.153 187.554V183.725H148.914V184.193H148.949C148.983 184.118 149.031 184.042 149.096 183.965C149.161 183.886 149.245 183.821 149.349 183.769C149.454 183.716 149.585 183.689 149.741 183.689C149.944 183.689 150.131 183.742 150.303 183.849C150.474 183.954 150.612 184.113 150.714 184.325C150.817 184.537 150.868 184.802 150.868 185.121C150.868 185.432 150.818 185.694 150.718 185.908C150.619 186.121 150.483 186.282 150.312 186.392C150.141 186.501 149.951 186.555 149.739 186.555C149.589 186.555 149.462 186.53 149.357 186.481C149.253 186.431 149.167 186.369 149.101 186.294C149.034 186.218 148.984 186.141 148.949 186.064H148.925V187.554H148.153ZM148.909 185.118C148.909 185.283 148.932 185.428 148.978 185.551C149.024 185.674 149.09 185.77 149.177 185.839C149.264 185.907 149.37 185.941 149.494 185.941C149.62 185.941 149.726 185.906 149.813 185.837C149.9 185.767 149.966 185.67 150.011 185.547C150.057 185.423 150.08 185.28 150.08 185.118C150.08 184.957 150.057 184.815 150.013 184.693C149.968 184.571 149.902 184.476 149.815 184.407C149.728 184.338 149.621 184.304 149.494 184.304C149.369 184.304 149.262 184.337 149.175 184.403C149.089 184.47 149.024 184.564 148.978 184.686C148.932 184.808 148.909 184.952 148.909 185.118ZM151.383 186.51V183.725H152.132V184.211H152.161C152.212 184.038 152.297 183.908 152.416 183.82C152.536 183.73 152.674 183.686 152.83 183.686C152.868 183.686 152.91 183.688 152.955 183.693C153 183.698 153.039 183.704 153.073 183.713V184.398C153.036 184.387 152.986 184.377 152.922 184.369C152.858 184.36 152.8 184.356 152.746 184.356C152.633 184.356 152.531 184.381 152.442 184.431C152.354 184.479 152.283 184.547 152.232 184.634C152.181 184.721 152.155 184.821 152.155 184.934V186.51H151.383ZM154.6 186.564C154.319 186.564 154.075 186.504 153.87 186.385C153.666 186.264 153.508 186.096 153.397 185.881C153.285 185.664 153.23 185.414 153.23 185.128C153.23 184.841 153.285 184.589 153.397 184.374C153.508 184.158 153.666 183.99 153.87 183.87C154.075 183.75 154.319 183.689 154.6 183.689C154.882 183.689 155.125 183.75 155.329 183.87C155.534 183.99 155.693 184.158 155.804 184.374C155.915 184.589 155.971 184.841 155.971 185.128C155.971 185.414 155.915 185.664 155.804 185.881C155.693 186.096 155.534 186.264 155.329 186.385C155.125 186.504 154.882 186.564 154.6 186.564ZM154.604 185.966C154.732 185.966 154.839 185.93 154.925 185.857C155.011 185.783 155.075 185.683 155.119 185.556C155.163 185.429 155.186 185.285 155.186 185.123C155.186 184.961 155.163 184.817 155.119 184.69C155.075 184.563 155.011 184.463 154.925 184.389C154.839 184.315 154.732 184.278 154.604 184.278C154.475 184.278 154.366 184.315 154.278 184.389C154.191 184.463 154.125 184.563 154.08 184.69C154.037 184.817 154.015 184.961 154.015 185.123C154.015 185.285 154.037 185.429 154.08 185.556C154.125 185.683 154.191 185.783 154.278 185.857C154.366 185.93 154.475 185.966 154.604 185.966ZM158.979 183.725L158.006 186.51H157.135L156.162 183.725H156.978L157.556 185.718H157.585L158.161 183.725H158.979ZM160.553 186.564C160.267 186.564 160.02 186.506 159.814 186.39C159.608 186.273 159.45 186.107 159.339 185.893C159.228 185.678 159.172 185.424 159.172 185.13C159.172 184.844 159.228 184.592 159.339 184.376C159.45 184.16 159.606 183.991 159.808 183.87C160.011 183.75 160.249 183.689 160.523 183.689C160.706 183.689 160.877 183.719 161.036 183.778C161.195 183.836 161.334 183.924 161.452 184.041C161.572 184.158 161.665 184.305 161.732 184.483C161.798 184.66 161.831 184.866 161.831 185.103V185.315H159.48V184.837H161.104C161.104 184.725 161.08 184.627 161.032 184.541C160.984 184.455 160.916 184.388 160.831 184.34C160.746 184.29 160.648 184.266 160.535 184.266C160.418 184.266 160.314 184.293 160.223 184.347C160.134 184.4 160.064 184.472 160.013 184.563C159.962 184.652 159.936 184.752 159.935 184.862V185.317C159.935 185.455 159.961 185.574 160.011 185.674C160.063 185.774 160.136 185.852 160.231 185.906C160.325 185.961 160.437 185.988 160.566 185.988C160.652 185.988 160.73 185.976 160.802 185.951C160.873 185.927 160.934 185.891 160.985 185.843C161.036 185.794 161.074 185.735 161.101 185.665L161.815 185.712C161.779 185.884 161.704 186.034 161.592 186.162C161.481 186.289 161.337 186.388 161.161 186.459C160.985 186.529 160.783 186.564 160.553 186.564Z" fill="#293853"/>
<path d="M86.0574 69H84.9494L88.1539 60.2727H89.2449L92.4494 69H91.3414L88.7335 61.6534H88.6653L86.0574 69ZM86.4664 65.5909H90.9324V66.5284H86.4664V65.5909ZM94.6781 60.2727V69H93.6724V60.2727H94.6781ZM97.5257 60.2727V69H96.5201V60.2727H97.5257ZM102.027 69.1364C101.436 69.1364 100.917 68.9957 100.471 68.7145C100.028 68.4332 99.6816 68.0398 99.4316 67.5341C99.1845 67.0284 99.0609 66.4375 99.0609 65.7614C99.0609 65.0795 99.1845 64.4844 99.4316 63.9759C99.6816 63.4673 100.028 63.0724 100.471 62.7912C100.917 62.5099 101.436 62.3693 102.027 62.3693C102.618 62.3693 103.135 62.5099 103.578 62.7912C104.024 63.0724 104.371 63.4673 104.618 63.9759C104.868 64.4844 104.993 65.0795 104.993 65.7614C104.993 66.4375 104.868 67.0284 104.618 67.5341C104.371 68.0398 104.024 68.4332 103.578 68.7145C103.135 68.9957 102.618 69.1364 102.027 69.1364ZM102.027 68.233C102.476 68.233 102.845 68.1179 103.135 67.8878C103.425 67.6577 103.639 67.3551 103.778 66.9801C103.917 66.6051 103.987 66.1989 103.987 65.7614C103.987 65.3239 103.917 64.9162 103.778 64.5384C103.639 64.1605 103.425 63.8551 103.135 63.6222C102.845 63.3892 102.476 63.2727 102.027 63.2727C101.578 63.2727 101.209 63.3892 100.919 63.6222C100.629 63.8551 100.415 64.1605 100.275 64.5384C100.136 64.9162 100.067 65.3239 100.067 65.7614C100.067 66.1989 100.136 66.6051 100.275 66.9801C100.415 67.3551 100.629 67.6577 100.919 67.8878C101.209 68.1179 101.578 68.233 102.027 68.233ZM107.788 69L105.794 62.4545H106.851L108.265 67.4659H108.334L109.731 62.4545H110.805L112.186 67.4489H112.254L113.669 62.4545H114.726L112.731 69H111.743L110.311 63.9716H110.209L108.777 69H107.788ZM122.277 62.4545V63.3068H118.885V62.4545H122.277ZM119.873 60.8864H120.879V67.125C120.879 67.4091 120.92 67.6222 121.003 67.7642C121.088 67.9034 121.196 67.9972 121.327 68.0455C121.46 68.0909 121.601 68.1136 121.748 68.1136C121.859 68.1136 121.95 68.108 122.021 68.0966C122.092 68.0824 122.149 68.071 122.192 68.0625L122.396 68.9659C122.328 68.9915 122.233 69.017 122.111 69.0426C121.988 69.071 121.834 69.0852 121.646 69.0852C121.362 69.0852 121.084 69.0241 120.811 68.902C120.541 68.7798 120.317 68.5938 120.138 68.3438C119.961 68.0938 119.873 67.7784 119.873 67.3977V60.8864ZM124.936 65.0625V69H123.93V60.2727H124.936V63.4773H125.021C125.175 63.1392 125.405 62.8707 125.711 62.6719C126.021 62.4702 126.433 62.3693 126.947 62.3693C127.393 62.3693 127.784 62.4588 128.119 62.6378C128.454 62.8139 128.714 63.0852 128.899 63.4517C129.086 63.8153 129.18 64.2784 129.18 64.8409V69H128.175V64.9091C128.175 64.3892 128.04 63.9872 127.77 63.7031C127.503 63.4162 127.132 63.2727 126.657 63.2727C126.328 63.2727 126.032 63.3423 125.771 63.4815C125.513 63.6207 125.308 63.8239 125.157 64.0909C125.01 64.358 124.936 64.6818 124.936 65.0625ZM131.02 69V62.4545H132.026V69H131.02ZM131.531 61.3636C131.335 61.3636 131.166 61.2969 131.024 61.1634C130.885 61.0298 130.816 60.8693 130.816 60.6818C130.816 60.4943 130.885 60.3338 131.024 60.2003C131.166 60.0668 131.335 60 131.531 60C131.727 60 131.895 60.0668 132.034 60.2003C132.176 60.3338 132.247 60.4943 132.247 60.6818C132.247 60.8693 132.176 61.0298 132.034 61.1634C131.895 61.2969 131.727 61.3636 131.531 61.3636ZM138.504 63.9205L137.601 64.1761C137.544 64.0256 137.46 63.8793 137.349 63.7372C137.241 63.5923 137.094 63.473 136.906 63.3793C136.719 63.2855 136.479 63.2386 136.186 63.2386C135.785 63.2386 135.452 63.331 135.184 63.5156C134.92 63.6974 134.788 63.929 134.788 64.2102C134.788 64.4602 134.879 64.6577 135.061 64.8026C135.243 64.9474 135.527 65.0682 135.913 65.1648L136.885 65.4034C137.47 65.5455 137.906 65.7628 138.193 66.0554C138.48 66.3452 138.623 66.7187 138.623 67.1761C138.623 67.5511 138.515 67.8864 138.3 68.1818C138.086 68.4773 137.788 68.7102 137.405 68.8807C137.021 69.0511 136.575 69.1364 136.067 69.1364C135.399 69.1364 134.846 68.9915 134.409 68.7017C133.971 68.4119 133.694 67.9886 133.578 67.4318L134.532 67.1932C134.623 67.5455 134.795 67.8097 135.048 67.9858C135.304 68.1619 135.638 68.25 136.05 68.25C136.518 68.25 136.89 68.1506 137.166 67.9517C137.444 67.75 137.584 67.5085 137.584 67.2273C137.584 67 137.504 66.8097 137.345 66.6562C137.186 66.5 136.942 66.3835 136.612 66.3068L135.521 66.0511C134.922 65.9091 134.481 65.6889 134.2 65.3906C133.922 65.0895 133.782 64.7131 133.782 64.2614C133.782 63.892 133.886 63.5653 134.094 63.2812C134.304 62.9972 134.589 62.7741 134.95 62.6122C135.314 62.4503 135.726 62.3693 136.186 62.3693C136.834 62.3693 137.342 62.5114 137.711 62.7955C138.084 63.0795 138.348 63.4545 138.504 63.9205ZM148.149 63.9205L147.245 64.1761C147.188 64.0256 147.105 63.8793 146.994 63.7372C146.886 63.5923 146.738 63.473 146.551 63.3793C146.363 63.2855 146.123 63.2386 145.83 63.2386C145.43 63.2386 145.096 63.331 144.829 63.5156C144.565 63.6974 144.433 63.929 144.433 64.2102C144.433 64.4602 144.524 64.6577 144.705 64.8026C144.887 64.9474 145.171 65.0682 145.558 65.1648L146.529 65.4034C147.115 65.5455 147.551 65.7628 147.838 66.0554C148.124 66.3452 148.268 66.7187 148.268 67.1761C148.268 67.5511 148.16 67.8864 147.944 68.1818C147.731 68.4773 147.433 68.7102 147.049 68.8807C146.666 69.0511 146.22 69.1364 145.711 69.1364C145.044 69.1364 144.491 68.9915 144.053 68.7017C143.616 68.4119 143.339 67.9886 143.222 67.4318L144.177 67.1932C144.268 67.5455 144.44 67.8097 144.693 67.9858C144.948 68.1619 145.282 68.25 145.694 68.25C146.163 68.25 146.535 68.1506 146.811 67.9517C147.089 67.75 147.228 67.5085 147.228 67.2273C147.228 67 147.149 66.8097 146.99 66.6562C146.83 66.5 146.586 66.3835 146.257 66.3068L145.166 66.0511C144.566 65.9091 144.126 65.6889 143.845 65.3906C143.566 65.0895 143.427 64.7131 143.427 64.2614C143.427 63.892 143.531 63.5653 143.738 63.2812C143.948 62.9972 144.234 62.7741 144.595 62.6122C144.958 62.4503 145.37 62.3693 145.83 62.3693C146.478 62.3693 146.987 62.5114 147.356 62.7955C147.728 63.0795 147.992 63.4545 148.149 63.9205ZM149.782 69V62.4545H150.787V69H149.782ZM150.293 61.3636C150.097 61.3636 149.928 61.2969 149.786 61.1634C149.647 61.0298 149.577 60.8693 149.577 60.6818C149.577 60.4943 149.647 60.3338 149.786 60.2003C149.928 60.0668 150.097 60 150.293 60C150.489 60 150.657 60.0668 150.796 60.2003C150.938 60.3338 151.009 60.4943 151.009 60.6818C151.009 60.8693 150.938 61.0298 150.796 61.1634C150.657 61.2969 150.489 61.3636 150.293 61.3636ZM155.476 62.4545V63.3068H152.084V62.4545H155.476ZM153.073 60.8864H154.078V67.125C154.078 67.4091 154.119 67.6222 154.202 67.7642C154.287 67.9034 154.395 67.9972 154.526 68.0455C154.659 68.0909 154.8 68.1136 154.948 68.1136C155.058 68.1136 155.149 68.108 155.22 68.0966C155.291 68.0824 155.348 68.071 155.391 68.0625L155.595 68.9659C155.527 68.9915 155.432 69.017 155.31 69.0426C155.188 69.071 155.033 69.0852 154.845 69.0852C154.561 69.0852 154.283 69.0241 154.01 68.902C153.74 68.7798 153.516 68.5938 153.337 68.3438C153.161 68.0938 153.073 67.7784 153.073 67.3977V60.8864ZM159.663 69.1364C159.032 69.1364 158.488 68.9972 158.031 68.7188C157.576 68.4375 157.225 68.0455 156.978 67.5426C156.734 67.0369 156.612 66.4489 156.612 65.7784C156.612 65.108 156.734 64.517 156.978 64.0057C157.225 63.4915 157.569 63.0909 158.009 62.804C158.453 62.5142 158.97 62.3693 159.561 62.3693C159.901 62.3693 160.238 62.4261 160.57 62.5398C160.903 62.6534 161.205 62.8381 161.478 63.0938C161.751 63.3466 161.968 63.6818 162.13 64.0994C162.292 64.517 162.373 65.0312 162.373 65.642V66.0682H157.328V65.1989H161.35C161.35 64.8295 161.276 64.5 161.129 64.2102C160.984 63.9205 160.776 63.6918 160.507 63.5241C160.24 63.3565 159.924 63.2727 159.561 63.2727C159.16 63.2727 158.813 63.3722 158.521 63.571C158.231 63.767 158.008 64.0227 157.852 64.3381C157.695 64.6534 157.617 64.9915 157.617 65.3523V65.9318C157.617 66.4261 157.703 66.8452 157.873 67.1889C158.046 67.5298 158.286 67.7898 158.593 67.9688C158.9 68.1449 159.257 68.233 159.663 68.233C159.927 68.233 160.166 68.196 160.379 68.1222C160.595 68.0455 160.781 67.9318 160.937 67.7812C161.093 67.6278 161.214 67.4375 161.299 67.2102L162.271 67.483C162.169 67.8125 161.997 68.1023 161.755 68.3523C161.514 68.5994 161.215 68.7926 160.86 68.9318C160.505 69.0682 160.106 69.1364 159.663 69.1364ZM78.2026 77.4545V78.3068H74.8105V77.4545H78.2026ZM75.7992 75.8864H76.8049V82.125C76.8049 82.4091 76.8461 82.6222 76.9284 82.7642C77.0137 82.9034 77.1216 82.9972 77.2523 83.0455C77.3858 83.0909 77.5265 83.1136 77.6742 83.1136C77.785 83.1136 77.8759 83.108 77.9469 83.0966C78.0179 83.0824 78.0748 83.071 78.1174 83.0625L78.3219 83.9659C78.2537 83.9915 78.1586 84.017 78.0364 84.0426C77.9142 84.071 77.7594 84.0852 77.5719 84.0852C77.2878 84.0852 77.0094 84.0241 76.7367 83.902C76.4668 83.7798 76.2424 83.5938 76.0634 83.3438C75.8873 83.0938 75.7992 82.7784 75.7992 82.3977V75.8864ZM82.3042 84.1364C81.7132 84.1364 81.1948 83.9957 80.7488 83.7145C80.3056 83.4332 79.959 83.0398 79.709 82.5341C79.4618 82.0284 79.3382 81.4375 79.3382 80.7614C79.3382 80.0795 79.4618 79.4844 79.709 78.9759C79.959 78.4673 80.3056 78.0724 80.7488 77.7912C81.1948 77.5099 81.7132 77.3693 82.3042 77.3693C82.8951 77.3693 83.4121 77.5099 83.8553 77.7912C84.3013 78.0724 84.6479 78.4673 84.8951 78.9759C85.1451 79.4844 85.2701 80.0795 85.2701 80.7614C85.2701 81.4375 85.1451 82.0284 84.8951 82.5341C84.6479 83.0398 84.3013 83.4332 83.8553 83.7145C83.4121 83.9957 82.8951 84.1364 82.3042 84.1364ZM82.3042 83.233C82.753 83.233 83.1223 83.1179 83.4121 82.8878C83.7019 82.6577 83.9164 82.3551 84.0556 81.9801C84.1948 81.6051 84.2644 81.1989 84.2644 80.7614C84.2644 80.3239 84.1948 79.9162 84.0556 79.5384C83.9164 79.1605 83.7019 78.8551 83.4121 78.6222C83.1223 78.3892 82.753 78.2727 82.3042 78.2727C81.8553 78.2727 81.486 78.3892 81.1962 78.6222C80.9064 78.8551 80.6919 79.1605 80.5527 79.5384C80.4135 79.9162 80.3439 80.3239 80.3439 80.7614C80.3439 81.1989 80.4135 81.6051 80.5527 81.9801C80.6919 82.3551 80.9064 82.6577 81.1962 82.8878C81.486 83.1179 81.8553 83.233 82.3042 83.233ZM92.1064 84.1534C91.6916 84.1534 91.3152 84.0753 90.9771 83.919C90.639 83.7599 90.3706 83.5312 90.1717 83.233C89.9728 82.9318 89.8734 82.5682 89.8734 82.142C89.8734 81.767 89.9473 81.4631 90.095 81.2301C90.2427 80.9943 90.4402 80.8097 90.6873 80.6761C90.9345 80.5426 91.2072 80.4432 91.5055 80.3778C91.8066 80.3097 92.1092 80.2557 92.4132 80.2159C92.8109 80.1648 93.1333 80.1264 93.3805 80.1009C93.6305 80.0724 93.8123 80.0256 93.926 79.9602C94.0424 79.8949 94.1007 79.7812 94.1007 79.6193V79.5852C94.1007 79.1648 93.9856 78.8381 93.7555 78.6051C93.5282 78.3722 93.1831 78.2557 92.72 78.2557C92.2399 78.2557 91.8635 78.3608 91.5907 78.571C91.318 78.7812 91.1262 79.0057 91.0154 79.2443L90.0609 78.9034C90.2314 78.5057 90.4586 78.196 90.7427 77.9744C91.0297 77.75 91.3422 77.5937 91.6802 77.5057C92.0211 77.4148 92.3564 77.3693 92.6859 77.3693C92.8961 77.3693 93.1376 77.3949 93.4103 77.446C93.6859 77.4943 93.9515 77.5952 94.2072 77.7486C94.4657 77.902 94.6802 78.1335 94.8507 78.4432C95.0211 78.7528 95.1064 79.1676 95.1064 79.6875V84H94.1007V83.1136H94.0495C93.9814 83.2557 93.8677 83.4077 93.7086 83.5696C93.5495 83.7315 93.3379 83.8693 93.0737 83.983C92.8095 84.0966 92.487 84.1534 92.1064 84.1534ZM92.2598 83.25C92.6575 83.25 92.9927 83.1719 93.2654 83.0156C93.541 82.8594 93.7484 82.6577 93.8876 82.4105C94.0297 82.1634 94.1007 81.9034 94.1007 81.6307V80.7102C94.0581 80.7614 93.9643 80.8082 93.8194 80.8509C93.6774 80.8906 93.5126 80.9261 93.3251 80.9574C93.1404 80.9858 92.96 81.0114 92.7839 81.0341C92.6106 81.054 92.47 81.071 92.362 81.0852C92.1007 81.1193 91.8564 81.1747 91.6291 81.2514C91.4047 81.3253 91.2228 81.4375 91.0836 81.5881C90.9473 81.7358 90.8791 81.9375 90.8791 82.1932C90.8791 82.5426 91.0083 82.8068 91.2669 82.9858C91.5282 83.1619 91.8592 83.25 92.2598 83.25ZM99.4135 84.1364C98.8681 84.1364 98.3865 83.9986 97.9689 83.723C97.5513 83.4446 97.2246 83.0526 96.9888 82.5469C96.753 82.0384 96.6351 81.4375 96.6351 80.7443C96.6351 80.0568 96.753 79.4602 96.9888 78.9545C97.2246 78.4489 97.5527 78.0582 97.9732 77.7827C98.3936 77.5071 98.8794 77.3693 99.4306 77.3693C99.8567 77.3693 100.193 77.4403 100.441 77.5824C100.691 77.7216 100.881 77.8807 101.012 78.0597C101.145 78.2358 101.249 78.3807 101.323 78.4943H101.408V75.2727H102.414V84H101.442V82.9943H101.323C101.249 83.1136 101.144 83.2642 101.007 83.446C100.871 83.625 100.676 83.7855 100.423 83.9276C100.171 84.0668 99.834 84.1364 99.4135 84.1364ZM99.5499 83.233C99.9533 83.233 100.294 83.1278 100.573 82.9176C100.851 82.7045 101.063 82.4105 101.208 82.0355C101.352 81.6577 101.425 81.2216 101.425 80.7273C101.425 80.2386 101.354 79.8111 101.212 79.4446C101.07 79.0753 100.86 78.7884 100.581 78.5838C100.303 78.3764 99.959 78.2727 99.5499 78.2727C99.1238 78.2727 98.7686 78.3821 98.4846 78.6009C98.2033 78.8168 97.9917 79.1108 97.8496 79.483C97.7104 79.8523 97.6408 80.267 97.6408 80.7273C97.6408 81.1932 97.7118 81.6165 97.8539 81.9972C97.9988 82.375 98.2118 82.6761 98.4931 82.9006C98.7772 83.1222 99.1294 83.233 99.5499 83.233ZM106.867 84.1364C106.321 84.1364 105.84 83.9986 105.422 83.723C105.004 83.4446 104.678 83.0526 104.442 82.5469C104.206 82.0384 104.088 81.4375 104.088 80.7443C104.088 80.0568 104.206 79.4602 104.442 78.9545C104.678 78.4489 105.006 78.0582 105.426 77.7827C105.847 77.5071 106.333 77.3693 106.884 77.3693C107.31 77.3693 107.646 77.4403 107.894 77.5824C108.144 77.7216 108.334 77.8807 108.465 78.0597C108.598 78.2358 108.702 78.3807 108.776 78.4943H108.861V75.2727H109.867V84H108.895V82.9943H108.776C108.702 83.1136 108.597 83.2642 108.46 83.446C108.324 83.625 108.129 83.7855 107.877 83.9276C107.624 84.0668 107.287 84.1364 106.867 84.1364ZM107.003 83.233C107.406 83.233 107.747 83.1278 108.026 82.9176C108.304 82.7045 108.516 82.4105 108.661 82.0355C108.806 81.6577 108.878 81.2216 108.878 80.7273C108.878 80.2386 108.807 79.8111 108.665 79.4446C108.523 79.0753 108.313 78.7884 108.034 78.5838C107.756 78.3764 107.412 78.2727 107.003 78.2727C106.577 78.2727 106.222 78.3821 105.938 78.6009C105.656 78.8168 105.445 79.1108 105.303 79.483C105.164 79.8523 105.094 80.267 105.094 80.7273C105.094 81.1932 105.165 81.6165 105.307 81.9972C105.452 82.375 105.665 82.6761 105.946 82.9006C106.23 83.1222 106.583 83.233 107.003 83.233ZM117.149 84.1534C116.735 84.1534 116.358 84.0753 116.02 83.919C115.682 83.7599 115.414 83.5312 115.215 83.233C115.016 82.9318 114.916 82.5682 114.916 82.142C114.916 81.767 114.99 81.4631 115.138 81.2301C115.286 80.9943 115.483 80.8097 115.73 80.6761C115.977 80.5426 116.25 80.4432 116.548 80.3778C116.85 80.3097 117.152 80.2557 117.456 80.2159C117.854 80.1648 118.176 80.1264 118.423 80.1009C118.673 80.0724 118.855 80.0256 118.969 79.9602C119.085 79.8949 119.144 79.7812 119.144 79.6193V79.5852C119.144 79.1648 119.029 78.8381 118.798 78.6051C118.571 78.3722 118.226 78.2557 117.763 78.2557C117.283 78.2557 116.906 78.3608 116.634 78.571C116.361 78.7812 116.169 79.0057 116.058 79.2443L115.104 78.9034C115.274 78.5057 115.502 78.196 115.786 77.9744C116.073 77.75 116.385 77.5937 116.723 77.5057C117.064 77.4148 117.399 77.3693 117.729 77.3693C117.939 77.3693 118.181 77.3949 118.453 77.446C118.729 77.4943 118.994 77.5952 119.25 77.7486C119.509 77.902 119.723 78.1335 119.894 78.4432C120.064 78.7528 120.149 79.1676 120.149 79.6875V84H119.144V83.1136H119.093C119.024 83.2557 118.911 83.4077 118.752 83.5696C118.593 83.7315 118.381 83.8693 118.117 83.983C117.852 84.0966 117.53 84.1534 117.149 84.1534ZM117.303 83.25C117.7 83.25 118.036 83.1719 118.308 83.0156C118.584 82.8594 118.791 82.6577 118.931 82.4105C119.073 82.1634 119.144 81.9034 119.144 81.6307V80.7102C119.101 80.7614 119.007 80.8082 118.862 80.8509C118.72 80.8906 118.556 80.9261 118.368 80.9574C118.183 80.9858 118.003 81.0114 117.827 81.0341C117.654 81.054 117.513 81.071 117.405 81.0852C117.144 81.1193 116.899 81.1747 116.672 81.2514C116.448 81.3253 116.266 81.4375 116.127 81.5881C115.99 81.7358 115.922 81.9375 115.922 82.1932C115.922 82.5426 116.051 82.8068 116.31 82.9858C116.571 83.1619 116.902 83.25 117.303 83.25ZM126.366 80.0625V84H125.36V77.4545H126.331V78.4773H126.417C126.57 78.1449 126.803 77.8778 127.116 77.6761C127.428 77.4716 127.831 77.3693 128.326 77.3693C128.769 77.3693 129.157 77.4602 129.489 77.642C129.822 77.821 130.08 78.0938 130.265 78.4602C130.449 78.8239 130.542 79.2841 130.542 79.8409V84H129.536V79.9091C129.536 79.3949 129.403 78.9943 129.135 78.7074C128.868 78.4176 128.502 78.2727 128.036 78.2727C127.715 78.2727 127.428 78.3423 127.175 78.4815C126.925 78.6207 126.728 78.8239 126.583 79.0909C126.438 79.358 126.366 79.6818 126.366 80.0625ZM135.124 84.1364C134.493 84.1364 133.949 83.9972 133.492 83.7188C133.037 83.4375 132.686 83.0455 132.439 82.5426C132.195 82.0369 132.073 81.4489 132.073 80.7784C132.073 80.108 132.195 79.517 132.439 79.0057C132.686 78.4915 133.03 78.0909 133.47 77.804C133.914 77.5142 134.431 77.3693 135.021 77.3693C135.362 77.3693 135.699 77.4261 136.031 77.5398C136.364 77.6534 136.666 77.8381 136.939 78.0938C137.212 78.3466 137.429 78.6818 137.591 79.0994C137.753 79.517 137.834 80.0312 137.834 80.642V81.0682H132.789V80.1989H136.811C136.811 79.8295 136.737 79.5 136.59 79.2102C136.445 78.9205 136.237 78.6918 135.968 78.5241C135.7 78.3565 135.385 78.2727 135.021 78.2727C134.621 78.2727 134.274 78.3722 133.982 78.571C133.692 78.767 133.469 79.0227 133.313 79.3381C133.156 79.6534 133.078 79.9915 133.078 80.3523V80.9318C133.078 81.4261 133.164 81.8452 133.334 82.1889C133.507 82.5298 133.747 82.7898 134.054 82.9688C134.361 83.1449 134.718 83.233 135.124 83.233C135.388 83.233 135.627 83.196 135.84 83.1222C136.056 83.0455 136.242 82.9318 136.398 82.7812C136.554 82.6278 136.675 82.4375 136.76 82.2102L137.732 82.483C137.629 82.8125 137.458 83.1023 137.216 83.3523C136.975 83.5994 136.676 83.7926 136.321 83.9318C135.966 84.0682 135.567 84.1364 135.124 84.1364ZM142.21 77.4545V78.3068H138.818V77.4545H142.21ZM139.807 75.8864H140.813V82.125C140.813 82.4091 140.854 82.6222 140.936 82.7642C141.021 82.9034 141.129 82.9972 141.26 83.0455C141.394 83.0909 141.534 83.1136 141.682 83.1136C141.793 83.1136 141.884 83.108 141.955 83.0966C142.026 83.0824 142.083 83.071 142.125 83.0625L142.33 83.9659C142.262 83.9915 142.166 84.017 142.044 84.0426C141.922 84.071 141.767 84.0852 141.58 84.0852C141.296 84.0852 141.017 84.0241 140.744 83.902C140.475 83.7798 140.25 83.5938 140.071 83.3438C139.895 83.0938 139.807 82.7784 139.807 82.3977V75.8864ZM145.206 84L143.212 77.4545H144.269L145.683 82.4659H145.752L147.149 77.4545H148.223L149.604 82.4489H149.672L151.087 77.4545H152.144L150.149 84H149.161L147.729 78.9716H147.627L146.195 84H145.206ZM155.91 84.1364C155.319 84.1364 154.8 83.9957 154.354 83.7145C153.911 83.4332 153.564 83.0398 153.314 82.5341C153.067 82.0284 152.944 81.4375 152.944 80.7614C152.944 80.0795 153.067 79.4844 153.314 78.9759C153.564 78.4673 153.911 78.0724 154.354 77.7912C154.8 77.5099 155.319 77.3693 155.91 77.3693C156.501 77.3693 157.018 77.5099 157.461 77.7912C157.907 78.0724 158.253 78.4673 158.501 78.9759C158.751 79.4844 158.876 80.0795 158.876 80.7614C158.876 81.4375 158.751 82.0284 158.501 82.5341C158.253 83.0398 157.907 83.4332 157.461 83.7145C157.018 83.9957 156.501 84.1364 155.91 84.1364ZM155.91 83.233C156.358 83.233 156.728 83.1179 157.018 82.8878C157.307 82.6577 157.522 82.3551 157.661 81.9801C157.8 81.6051 157.87 81.1989 157.87 80.7614C157.87 80.3239 157.8 79.9162 157.661 79.5384C157.522 79.1605 157.307 78.8551 157.018 78.6222C156.728 78.3892 156.358 78.2727 155.91 78.2727C155.461 78.2727 155.091 78.3892 154.802 78.6222C154.512 78.8551 154.297 79.1605 154.158 79.5384C154.019 79.9162 153.949 80.3239 153.949 80.7614C153.949 81.1989 154.019 81.6051 154.158 81.9801C154.297 82.3551 154.512 82.6577 154.802 82.8878C155.091 83.1179 155.461 83.233 155.91 83.233ZM160.411 84V77.4545H161.382V78.4432H161.45C161.57 78.1193 161.786 77.8565 162.098 77.6548C162.411 77.4531 162.763 77.3523 163.155 77.3523C163.229 77.3523 163.321 77.3537 163.432 77.3565C163.543 77.3594 163.627 77.3636 163.683 77.3693V78.392C163.649 78.3835 163.571 78.3707 163.449 78.3537C163.33 78.3338 163.203 78.3239 163.07 78.3239C162.752 78.3239 162.468 78.3906 162.218 78.5241C161.97 78.6548 161.774 78.8366 161.629 79.0696C161.487 79.2997 161.416 79.5625 161.416 79.858V84H160.411ZM165.813 81.6136L165.796 80.3693H166.001L168.864 77.4545H170.108L167.057 80.5398H166.972L165.813 81.6136ZM164.876 84V75.2727H165.881V84H164.876ZM169.035 84L166.478 80.7614L167.194 80.0625L170.313 84H169.035ZM172.715 81.5455V81.4943C172.721 80.9517 172.778 80.5199 172.886 80.1989C172.994 79.8778 173.147 79.6179 173.346 79.419C173.545 79.2202 173.784 79.0369 174.062 78.8693C174.23 78.767 174.38 78.6463 174.514 78.5071C174.647 78.3651 174.752 78.2017 174.829 78.017C174.909 77.8324 174.948 77.6278 174.948 77.4034C174.948 77.125 174.883 76.8835 174.752 76.679C174.622 76.4744 174.447 76.3168 174.228 76.206C174.009 76.0952 173.767 76.0398 173.499 76.0398C173.267 76.0398 173.042 76.0881 172.826 76.1847C172.61 76.2812 172.43 76.4332 172.285 76.6406C172.14 76.848 172.056 77.1193 172.034 77.4545H170.96C170.982 76.9716 171.107 76.5582 171.335 76.2145C171.565 75.8707 171.867 75.608 172.242 75.4261C172.62 75.2443 173.039 75.1534 173.499 75.1534C173.999 75.1534 174.434 75.2528 174.803 75.4517C175.176 75.6506 175.463 75.9233 175.664 76.2699C175.869 76.6165 175.971 77.0114 175.971 77.4545C175.971 77.767 175.923 78.0497 175.826 78.3026C175.732 78.5554 175.596 78.7812 175.417 78.9801C175.241 79.179 175.028 79.3551 174.778 79.5085C174.528 79.6648 174.328 79.8295 174.177 80.0028C174.026 80.1733 173.917 80.3764 173.849 80.6122C173.781 80.848 173.744 81.142 173.738 81.4943V81.5455H172.715ZM173.261 84.0682C173.051 84.0682 172.87 83.9929 172.72 83.8423C172.569 83.6918 172.494 83.5114 172.494 83.3011C172.494 83.0909 172.569 82.9105 172.72 82.7599C172.87 82.6094 173.051 82.5341 173.261 82.5341C173.471 82.5341 173.651 82.6094 173.802 82.7599C173.953 82.9105 174.028 83.0909 174.028 83.3011C174.028 83.4403 173.992 83.5682 173.921 83.6847C173.853 83.8011 173.761 83.8949 173.644 83.9659C173.531 84.0341 173.403 84.0682 173.261 84.0682Z" fill="#A5B5D6"/>
</g>
<rect x="185.75" y="46.25" width="157.5" height="121.5" rx="13.2078" transform="rotate(90 185.75 46.25)" stroke="#7E92BD" stroke-width="2.5"/>
<rect x="152" y="98" width="54" height="54" rx="6" transform="rotate(90 152 98)" fill="#2E3C57"/>
<path d="M139.418 110L126.917 119.25L129.242 113.799L139.418 110Z" fill="#798CB2"/>
<path d="M110.583 110L122.973 119.336L120.759 113.799L110.583 110Z" fill="#798CB2"/>
<path d="M134.917 131.447L131.591 136.528L138.713 138.489L140.753 131.558L134.917 131.447Z" fill="#889ABF"/>
<path d="M109.26 131.558L111.288 138.489L118.397 136.528L115.084 131.447L109.26 131.558Z" fill="#889ABF"/>
<path d="M118.014 122.864L116.036 125.848L123.084 126.169L122.849 118.584L118.014 122.864Z" fill="#798CB3"/>
<path d="M131.987 122.863L127.078 118.498L126.917 126.169L133.965 125.848L131.987 122.863Z" fill="#798CB3"/>
<path d="M118.397 136.528L122.663 134.469L118.991 131.607L118.397 136.528Z" fill="#798CB2"/>
<path d="M127.337 134.469L131.59 136.528L131.009 131.607L127.337 134.469Z" fill="#798CB2"/>
<path d="M131.59 136.529L127.337 134.469L127.683 137.232L127.646 138.403L131.59 136.529Z" fill="#A5B5D6"/>
<path d="M118.397 136.529L122.354 138.403L122.329 137.232L122.663 134.469L118.397 136.529Z" fill="#A5B5D6"/>
<path d="M122.428 129.782L118.892 128.746L121.389 127.599L122.428 129.782Z" fill="#3F5173"/>
<path d="M127.572 129.782L128.611 127.599L131.121 128.746L127.572 129.782Z" fill="#3F5173"/>
<path d="M118.398 136.528L119.016 131.447L115.084 131.558L118.398 136.528Z" fill="#5F75A1"/>
<path d="M130.984 131.447L131.59 136.528L134.916 131.558L130.984 131.447Z" fill="#5F75A1"/>
<path d="M133.965 125.848L126.917 126.168L127.572 129.782L128.611 127.599L131.121 128.746L133.965 125.848Z" fill="#5F75A1"/>
<path d="M118.892 128.746L121.39 127.599L122.429 129.782L123.084 126.168L116.036 125.848L118.892 128.746Z" fill="#5F75A1"/>
<path d="M116.037 125.848L118.992 131.607L118.893 128.746L116.037 125.848Z" fill="#889ABF"/>
<path d="M131.121 128.746L131.01 131.607L133.965 125.848L131.121 128.746Z" fill="#889ABF"/>
<path d="M123.084 126.168L122.429 129.782L123.257 134.049L123.443 128.425L123.084 126.168Z" fill="#889ABF"/>
<path d="M126.917 126.168L126.57 128.413L126.743 134.049L127.572 129.782L126.917 126.168Z" fill="#889ABF"/>
<path d="M127.573 129.782L126.744 134.049L127.338 134.469L131.01 131.607L131.121 128.746L127.573 129.782Z" fill="#A5B5D6"/>
<path d="M118.892 128.746L118.991 131.607L122.663 134.469L123.256 134.049L122.428 129.782L118.892 128.746Z" fill="#A5B5D6"/>
<path d="M127.646 138.403L127.683 137.231L127.362 136.96H122.639L122.329 137.231L122.354 138.403L118.397 136.528L119.782 137.663L122.589 139.599H127.399L130.218 137.663L131.591 136.528L127.646 138.403Z" fill="#889ABF"/>
<path d="M127.338 134.469L126.744 134.049H123.257L122.664 134.469L122.33 137.231L122.639 136.96H127.363L127.684 137.231L127.338 134.469Z" fill="#3F5173"/>
<path d="M139.949 119.854L141 114.748L139.417 110L127.337 118.941L131.986 122.863L138.552 124.775L139.998 123.085L139.368 122.629L140.369 121.716L139.603 121.124L140.604 120.36L139.949 119.854Z" fill="#596D94"/>
<path d="M109 114.748L110.063 119.854L109.383 120.36L110.397 121.124L109.631 121.716L110.632 122.629L110.002 123.085L111.448 124.775L118.014 122.863L122.663 118.941L110.583 110L109 114.748Z" fill="#596D94"/>
<path d="M138.552 124.775L131.987 122.864L133.965 125.848L131.01 131.608L134.917 131.559H140.753L138.552 124.775Z" fill="#A5B5D6"/>
<path d="M118.014 122.864L111.448 124.775L109.26 131.559H115.084L118.991 131.608L116.036 125.848L118.014 122.864Z" fill="#A5B5D6"/>
<path d="M126.916 126.169L127.337 118.942L129.241 113.799H120.759L122.663 118.942L123.083 126.169L123.244 128.438L123.256 134.05H126.743L126.756 128.438L126.916 126.169Z" fill="#A5B5D6"/>
<circle cx="208.706" cy="214.706" r="3.7065" fill="white"/>
<circle cx="31.7065" cy="101.706" r="3.7065" fill="white"/>
<circle cx="213.706" cy="33.7065" r="3.7065" fill="white"/>
<circle cx="109.706" cy="236.706" r="3.7065" fill="white"/>
<path d="M27.0717 176.232L20.6442 173.868C20.4552 173.798 20.2921 173.672 20.1769 173.507C20.0617 173.342 20 173.145 20 172.944C20 172.742 20.0617 172.546 20.1769 172.38C20.2921 172.215 20.4552 172.089 20.6442 172.019L27.0717 169.655C27.2056 169.606 27.3271 169.529 27.4279 169.428C27.5287 169.327 27.6063 169.206 27.6553 169.072L30.0192 162.644C30.089 162.455 30.215 162.292 30.3803 162.177C30.5456 162.062 30.7422 162 30.9437 162C31.1451 162 31.3418 162.062 31.5071 162.177C31.6723 162.292 31.7984 162.455 31.8681 162.644L34.2321 169.072C34.2811 169.206 34.3587 169.327 34.4595 169.428C34.5603 169.529 34.6818 169.606 34.8156 169.655L41.2432 172.019C41.4322 172.089 41.5953 172.215 41.7104 172.38C41.8256 172.546 41.8874 172.742 41.8874 172.944C41.8874 173.145 41.8256 173.342 41.7104 173.507C41.5953 173.672 41.4322 173.798 41.2432 173.868L34.8156 176.232C34.6818 176.281 34.5603 176.359 34.4595 176.459C34.3587 176.56 34.2811 176.682 34.2321 176.816L31.8681 183.243C31.7984 183.432 31.6723 183.595 31.5071 183.71C31.3418 183.826 31.1451 183.887 30.9437 183.887C30.7422 183.887 30.5456 183.826 30.3803 183.71C30.215 183.595 30.089 183.432 30.0192 183.243L27.6553 176.816C27.6063 176.682 27.5287 176.56 27.4279 176.459C27.3271 176.359 27.2056 176.281 27.0717 176.232Z" fill="#2AB5F0"/>
<path d="M212.848 108.795L205.715 106.172C205.505 106.094 205.324 105.954 205.196 105.771C205.069 105.588 205 105.369 205 105.146C205 104.922 205.069 104.704 205.196 104.52C205.324 104.337 205.505 104.197 205.715 104.12L212.848 101.496C212.997 101.442 213.132 101.356 213.244 101.244C213.356 101.132 213.442 100.997 213.496 100.848L216.12 93.7149C216.197 93.5052 216.337 93.3242 216.52 93.1964C216.704 93.0685 216.922 93 217.146 93C217.369 93 217.588 93.0685 217.771 93.1964C217.954 93.3242 218.094 93.5052 218.172 93.7149L220.795 100.848C220.85 100.997 220.936 101.132 221.048 101.244C221.16 101.356 221.294 101.442 221.443 101.496L228.577 104.12C228.786 104.197 228.967 104.337 229.095 104.52C229.223 104.704 229.291 104.922 229.291 105.146C229.291 105.369 229.223 105.588 229.095 105.771C228.967 105.954 228.786 106.094 228.577 106.172L221.443 108.795C221.294 108.85 221.16 108.936 221.048 109.048C220.936 109.16 220.85 109.294 220.795 109.443L218.172 116.577C218.094 116.786 217.954 116.967 217.771 117.095C217.588 117.223 217.369 117.291 217.146 117.291C216.922 117.291 216.704 117.223 216.52 117.095C216.337 116.967 216.197 116.786 216.12 116.577L213.496 109.443C213.442 109.294 213.356 109.16 213.244 109.048C213.132 108.936 212.997 108.85 212.848 108.795Z" fill="#2AB5F0"/>
<path d="M39.8485 25.7954L32.7149 23.1717C32.5052 23.0943 32.3242 22.9544 32.1964 22.771C32.0685 22.5875 32 22.3693 32 22.1457C32 21.9221 32.0685 21.7039 32.1964 21.5205C32.3242 21.337 32.5052 21.1972 32.7149 21.1197L39.8485 18.4961C39.997 18.4417 40.1319 18.3556 40.2438 18.2437C40.3556 18.1319 40.4417 17.997 40.4961 17.8485L43.1197 10.7149C43.1972 10.5052 43.337 10.3242 43.5205 10.1964C43.7039 10.0685 43.9221 10 44.1457 10C44.3693 10 44.5875 10.0685 44.771 10.1964C44.9544 10.3242 45.0943 10.5052 45.1717 10.7149L47.7954 17.8485C47.8497 17.997 47.9359 18.1319 48.0477 18.2437C48.1596 18.3556 48.2944 18.4417 48.443 18.4961L55.5765 21.1197C55.7863 21.1972 55.9673 21.337 56.0951 21.5205C56.2229 21.7039 56.2915 21.9221 56.2915 22.1457C56.2915 22.3693 56.2229 22.5875 56.0951 22.771C55.9673 22.9544 55.7863 23.0943 55.5765 23.1717L48.443 25.7954C48.2944 25.8497 48.1596 25.9359 48.0477 26.0477C47.9359 26.1596 47.8497 26.2944 47.7954 26.443L45.1717 33.5765C45.0943 33.7863 44.9544 33.9673 44.771 34.0951C44.5875 34.2229 44.3693 34.2915 44.1457 34.2915C43.9221 34.2915 43.7039 34.2229 43.5205 34.0951C43.337 33.9673 43.1972 33.7863 43.1197 33.5765L40.4961 26.443C40.4417 26.2944 40.3556 26.1596 40.2438 26.0477C40.1319 25.9359 39.997 25.8497 39.8485 25.7954Z" fill="#2AB5F0"/>
<defs>
<clipPath id="clip0_173_506">
<rect x="187" y="45" width="160" height="124" rx="14.4578" transform="rotate(90 187 45)" fill="white"/>
</clipPath>
</defs>
</svg>
