<svg width="250" height="250" viewBox="0 0 250 250" fill="none" xmlns="http://www.w3.org/2000/svg">
<path opacity="0.2" d="M45.6227 211.463C42.8225 211.075 40.3063 210.666 38.0936 210.243C38.3908 210.186 38.6935 210.13 39.0016 210.073C40.965 210.566 43.1832 211.029 45.6227 211.463ZM28.2843 207.339C28.2911 207.338 28.3477 207.374 28.4336 207.448C28.3204 207.377 28.2775 207.339 28.2843 207.339ZM28.2843 213.147C28.2775 213.147 28.3204 213.109 28.4336 213.037C28.3477 213.112 28.2911 213.148 28.2843 213.147ZM189.4 213.147C189.393 213.148 189.337 213.112 189.251 213.037C189.364 213.109 189.407 213.147 189.4 213.147ZM197.4 203.147C197.393 203.148 197.337 203.112 197.251 203.037C197.364 203.109 197.407 203.147 197.4 203.147ZM195.499 190.623C191.767 189.635 187.022 188.76 181.524 188C183.128 188.166 184.677 188.34 186.168 188.52C190.569 189.051 194.396 189.632 197.591 190.243C196.921 190.371 196.224 190.498 195.499 190.623ZM46.2843 187.339C46.2911 187.338 46.3477 187.374 46.4336 187.448C46.3204 187.377 46.2775 187.339 46.2843 187.339ZM207.4 193.147C207.393 193.148 207.337 193.112 207.251 193.037C207.364 193.109 207.407 193.147 207.4 193.147ZM207.251 187.448C207.337 187.374 207.393 187.338 207.4 187.339C207.407 187.339 207.364 187.377 207.251 187.448ZM36.2843 197.339C36.2911 197.338 36.3477 197.374 36.4336 197.448C36.3204 197.377 36.2775 197.339 36.2843 197.339Z" fill="#161F30" stroke="#0C111A" stroke-width="11.1195"/>
<g clip-path="url(#clip0_162_796)">
<rect x="187" y="45" width="160" height="124" rx="14.4578" transform="rotate(90 187 45)" fill="#3F5173"/>
<path d="M93.3825 184.097H92.5885C92.574 183.994 92.5444 183.903 92.4997 183.823C92.4549 183.742 92.3975 183.673 92.3274 183.617C92.2574 183.56 92.1764 183.516 92.0845 183.486C91.9939 183.456 91.8954 183.441 91.7891 183.441C91.5969 183.441 91.4295 183.489 91.2869 183.584C91.1443 183.678 91.0338 183.816 90.9552 183.997C90.8767 184.177 90.8374 184.396 90.8374 184.654C90.8374 184.918 90.8767 185.141 90.9552 185.321C91.035 185.501 91.1461 185.637 91.2887 185.728C91.4314 185.82 91.5963 185.866 91.7836 185.866C91.8888 185.866 91.986 185.852 92.0755 185.825C92.1661 185.797 92.2465 185.756 92.3166 185.703C92.3867 185.649 92.4447 185.583 92.4906 185.506C92.5377 185.428 92.5704 185.34 92.5885 185.241L93.3825 185.244C93.3619 185.415 93.3106 185.579 93.2284 185.738C93.1474 185.895 93.038 186.035 92.9003 186.16C92.7637 186.283 92.6006 186.381 92.4108 186.454C92.2223 186.525 92.009 186.561 91.7709 186.561C91.4398 186.561 91.1437 186.486 90.8827 186.336C90.6229 186.186 90.4174 185.969 90.2664 185.685C90.1165 185.401 90.0416 185.057 90.0416 184.654C90.0416 184.249 90.1177 183.904 90.27 183.62C90.4223 183.336 90.6289 183.12 90.8899 182.971C91.151 182.821 91.4446 182.747 91.7709 182.747C91.986 182.747 92.1854 182.777 92.3691 182.837C92.554 182.898 92.7178 182.986 92.8604 183.102C93.003 183.217 93.119 183.357 93.2084 183.524C93.2991 183.691 93.3571 183.882 93.3825 184.097ZM94.7248 186.562C94.5471 186.562 94.3888 186.532 94.2498 186.47C94.1109 186.407 94.0009 186.315 93.9199 186.193C93.8402 186.069 93.8003 185.916 93.8003 185.732C93.8003 185.577 93.8287 185.448 93.8855 185.342C93.9423 185.237 94.0196 185.153 94.1175 185.089C94.2154 185.025 94.3266 184.976 94.4511 184.944C94.5767 184.911 94.7085 184.888 94.8462 184.875C95.0082 184.858 95.1387 184.842 95.2378 184.828C95.3369 184.812 95.4088 184.789 95.4535 184.759C95.4982 184.728 95.5206 184.684 95.5206 184.625V184.614C95.5206 184.499 95.4843 184.41 95.4118 184.347C95.3405 184.284 95.239 184.253 95.1073 184.253C94.9683 184.253 94.8577 184.284 94.7755 184.345C94.6934 184.406 94.639 184.482 94.6124 184.574L93.8982 184.516C93.9344 184.347 94.0057 184.2 94.1121 184.077C94.2184 183.953 94.3556 183.857 94.5236 183.791C94.6928 183.723 94.8885 183.689 95.1109 183.689C95.2656 183.689 95.4136 183.707 95.555 183.744C95.6976 183.78 95.8239 183.836 95.9339 183.912C96.0451 183.988 96.1327 184.086 96.1967 184.206C96.2608 184.324 96.2928 184.466 96.2928 184.632V186.51H95.5605V186.124H95.5387C95.494 186.211 95.4342 186.287 95.3592 186.354C95.2843 186.419 95.1943 186.47 95.0891 186.508C94.984 186.544 94.8626 186.562 94.7248 186.562ZM94.9459 186.029C95.0595 186.029 95.1598 186.007 95.2469 185.962C95.3339 185.916 95.4021 185.855 95.4517 185.777C95.5012 185.7 95.526 185.612 95.526 185.515V185.219C95.5018 185.235 95.4686 185.249 95.4263 185.263C95.3852 185.275 95.3387 185.286 95.2867 185.297C95.2348 185.307 95.1828 185.316 95.1308 185.324C95.0789 185.331 95.0317 185.338 94.9894 185.344C94.8988 185.357 94.8197 185.379 94.752 185.408C94.6843 185.437 94.6317 185.476 94.5943 185.525C94.5568 185.574 94.5381 185.634 94.5381 185.707C94.5381 185.812 94.5761 185.892 94.6523 185.948C94.7296 186.002 94.8275 186.029 94.9459 186.029ZM97.6641 184.9V186.51H96.8919V183.725H97.6279V184.217H97.6605C97.7221 184.055 97.8255 183.927 97.9705 183.832C98.1155 183.737 98.2913 183.689 98.498 183.689C98.6914 183.689 98.8599 183.731 99.0037 183.816C99.1476 183.901 99.2593 184.021 99.3391 184.179C99.4189 184.334 99.4587 184.521 99.4587 184.737V186.51H98.6865V184.875C98.6877 184.704 98.6442 184.571 98.556 184.476C98.4678 184.379 98.3463 184.331 98.1916 184.331C98.0877 184.331 97.9959 184.353 97.9161 184.398C97.8376 184.443 97.7759 184.508 97.7312 184.594C97.6877 184.678 97.6653 184.78 97.6641 184.9ZM101.325 186.564C101.04 186.564 100.795 186.504 100.589 186.383C100.385 186.261 100.228 186.092 100.118 185.875C100.009 185.659 99.955 185.41 99.955 185.128C99.955 184.843 100.01 184.593 100.12 184.378C100.231 184.162 100.389 183.993 100.593 183.872C100.797 183.75 101.04 183.689 101.322 183.689C101.565 183.689 101.777 183.733 101.96 183.821C102.142 183.91 102.287 184.034 102.393 184.193C102.499 184.353 102.558 184.54 102.569 184.755H101.84C101.82 184.616 101.765 184.504 101.677 184.42C101.59 184.334 101.476 184.291 101.334 184.291C101.215 184.291 101.11 184.324 101.021 184.389C100.933 184.453 100.864 184.547 100.814 184.67C100.765 184.793 100.74 184.942 100.74 185.118C100.74 185.295 100.764 185.446 100.812 185.571C100.862 185.695 100.931 185.79 101.021 185.855C101.11 185.921 101.215 185.953 101.334 185.953C101.423 185.953 101.502 185.935 101.572 185.899C101.643 185.863 101.702 185.81 101.748 185.741C101.795 185.671 101.826 185.587 101.84 185.489H102.569C102.557 185.702 102.499 185.889 102.395 186.051C102.292 186.212 102.15 186.338 101.969 186.428C101.788 186.519 101.573 186.564 101.325 186.564ZM104.332 186.564C104.046 186.564 103.799 186.506 103.593 186.39C103.387 186.273 103.229 186.107 103.118 185.893C103.007 185.678 102.951 185.424 102.951 185.13C102.951 184.844 103.007 184.592 103.118 184.376C103.229 184.16 103.385 183.991 103.587 183.87C103.79 183.75 104.028 183.689 104.301 183.689C104.485 183.689 104.656 183.719 104.814 183.778C104.974 183.836 105.113 183.924 105.231 184.041C105.351 184.158 105.444 184.305 105.511 184.483C105.577 184.66 105.61 184.866 105.61 185.103V185.315H103.259V184.837H104.883C104.883 184.725 104.859 184.627 104.811 184.541C104.762 184.455 104.695 184.388 104.61 184.34C104.525 184.29 104.427 184.266 104.314 184.266C104.197 184.266 104.093 184.293 104.002 184.347C103.913 184.4 103.843 184.472 103.792 184.563C103.741 184.652 103.715 184.752 103.714 184.862V185.317C103.714 185.455 103.74 185.574 103.79 185.674C103.842 185.774 103.915 185.852 104.01 185.906C104.104 185.961 104.216 185.988 104.345 185.988C104.431 185.988 104.509 185.976 104.581 185.951C104.652 185.927 104.713 185.891 104.764 185.843C104.814 185.794 104.853 185.735 104.88 185.665L105.594 185.712C105.558 185.884 105.483 186.034 105.371 186.162C105.26 186.289 105.116 186.388 104.94 186.459C104.764 186.529 104.562 186.564 104.332 186.564ZM106.886 182.797V186.51H106.114V182.797H106.886Z" fill="#A5B5D6"/>
<rect x="76.25" y="178.25" width="45.0685" height="12.5196" rx="6.25979" stroke="#A5B5D6" stroke-width="0.5"/>
<rect x="129.012" y="178" width="45.5685" height="13.0196" rx="6.50979" fill="#A5B5D6"/>
<path d="M148.133 183.865C148.118 183.719 148.056 183.605 147.946 183.524C147.836 183.443 147.687 183.403 147.498 183.403C147.37 183.403 147.262 183.421 147.174 183.457C147.085 183.492 147.018 183.541 146.971 183.604C146.925 183.667 146.902 183.738 146.902 183.818C146.899 183.884 146.913 183.942 146.943 183.992C146.975 184.041 147.018 184.084 147.072 184.121C147.126 184.156 147.189 184.186 147.261 184.213C147.332 184.238 147.408 184.26 147.489 184.278L147.823 184.358C147.984 184.394 148.133 184.443 148.268 184.503C148.404 184.563 148.521 184.638 148.62 184.726C148.719 184.814 148.796 184.918 148.85 185.038C148.906 185.157 148.934 185.295 148.936 185.449C148.934 185.677 148.876 185.873 148.762 186.04C148.648 186.206 148.484 186.335 148.268 186.426C148.055 186.517 147.797 186.562 147.494 186.562C147.195 186.562 146.934 186.516 146.711 186.425C146.49 186.333 146.317 186.197 146.193 186.017C146.07 185.835 146.005 185.611 145.999 185.344H146.758C146.767 185.469 146.803 185.573 146.865 185.656C146.929 185.738 147.015 185.8 147.121 185.843C147.229 185.884 147.35 185.904 147.485 185.904C147.618 185.904 147.734 185.885 147.832 185.846C147.931 185.808 148.007 185.754 148.062 185.685C148.116 185.616 148.143 185.537 148.143 185.448C148.143 185.364 148.119 185.294 148.069 185.237C148.021 185.18 147.949 185.132 147.855 185.092C147.762 185.052 147.648 185.016 147.513 184.983L147.108 184.882C146.795 184.806 146.548 184.687 146.367 184.525C146.186 184.363 146.096 184.145 146.097 183.87C146.096 183.646 146.155 183.449 146.276 183.281C146.398 183.113 146.566 182.982 146.778 182.888C146.991 182.794 147.233 182.747 147.503 182.747C147.779 182.747 148.02 182.794 148.225 182.888C148.432 182.982 148.592 183.113 148.707 183.281C148.822 183.449 148.881 183.644 148.885 183.865H148.133ZM149.449 186.51V183.725H150.221V186.51H149.449ZM149.837 183.366C149.722 183.366 149.624 183.328 149.541 183.252C149.46 183.175 149.42 183.082 149.42 182.975C149.42 182.869 149.46 182.777 149.541 182.701C149.624 182.624 149.722 182.585 149.837 182.585C149.952 182.585 150.05 182.624 150.131 182.701C150.213 182.777 150.254 182.869 150.254 182.975C150.254 183.082 150.213 183.175 150.131 183.252C150.05 183.328 149.952 183.366 149.837 183.366ZM152.094 187.612C151.844 187.612 151.63 187.577 151.451 187.509C151.273 187.441 151.132 187.348 151.027 187.231C150.921 187.114 150.853 186.982 150.822 186.836L151.536 186.74C151.558 186.796 151.592 186.848 151.639 186.896C151.686 186.944 151.749 186.983 151.826 187.012C151.905 187.042 152 187.057 152.112 187.057C152.28 187.057 152.419 187.016 152.527 186.934C152.637 186.853 152.692 186.717 152.692 186.526V186.017H152.66C152.626 186.094 152.575 186.167 152.508 186.236C152.44 186.305 152.353 186.361 152.247 186.405C152.14 186.448 152.013 186.47 151.866 186.47C151.657 186.47 151.466 186.422 151.295 186.325C151.124 186.227 150.988 186.078 150.887 185.877C150.787 185.675 150.737 185.42 150.737 185.112C150.737 184.797 150.788 184.533 150.891 184.322C150.993 184.11 151.13 183.952 151.3 183.847C151.472 183.742 151.66 183.689 151.864 183.689C152.02 183.689 152.15 183.716 152.256 183.769C152.361 183.821 152.445 183.886 152.509 183.965C152.575 184.042 152.625 184.118 152.66 184.193H152.689V183.725H153.456V186.537C153.456 186.774 153.398 186.972 153.282 187.132C153.166 187.291 153.005 187.411 152.799 187.49C152.595 187.571 152.36 187.612 152.094 187.612ZM152.111 185.89C152.235 185.89 152.34 185.859 152.426 185.797C152.513 185.735 152.579 185.645 152.625 185.529C152.673 185.412 152.696 185.272 152.696 185.109C152.696 184.945 152.673 184.804 152.627 184.684C152.581 184.563 152.515 184.47 152.428 184.403C152.341 184.337 152.235 184.304 152.111 184.304C151.984 184.304 151.877 184.338 151.79 184.407C151.703 184.475 151.637 184.569 151.592 184.69C151.547 184.811 151.525 184.95 151.525 185.109C151.525 185.269 151.547 185.408 151.592 185.525C151.638 185.641 151.704 185.731 151.79 185.796C151.877 185.858 151.984 185.89 152.111 185.89ZM154.842 184.9V186.51H154.07V183.725H154.806V184.217H154.839C154.9 184.055 155.004 183.927 155.149 183.832C155.294 183.737 155.47 183.689 155.676 183.689C155.87 183.689 156.038 183.731 156.182 183.816C156.326 183.901 156.438 184.021 156.517 184.179C156.597 184.334 156.637 184.521 156.637 184.737V186.51H155.865V184.875C155.866 184.704 155.822 184.571 155.734 184.476C155.646 184.379 155.525 184.331 155.37 184.331C155.266 184.331 155.174 184.353 155.094 184.398C155.016 184.443 154.954 184.508 154.909 184.594C154.866 184.678 154.844 184.78 154.842 184.9Z" fill="#293853"/>
</g>
<rect x="185.75" y="46.25" width="157.5" height="121.5" rx="13.2078" transform="rotate(90 185.75 46.25)" stroke="#7E92BD" stroke-width="2.5"/>
<rect x="152" y="82" width="54" height="54" rx="6" transform="rotate(90 152 82)" fill="#2E3C57"/>
<path d="M139.418 94L126.917 103.25L129.242 97.7986L139.418 94Z" fill="#798CB2"/>
<path d="M110.583 94L122.973 103.336L120.759 97.7986L110.583 94Z" fill="#798CB2"/>
<path d="M134.917 115.447L131.591 120.528L138.713 122.489L140.753 115.558L134.917 115.447Z" fill="#889ABF"/>
<path d="M109.26 115.558L111.288 122.489L118.397 120.528L115.084 115.447L109.26 115.558Z" fill="#889ABF"/>
<path d="M118.014 106.864L116.036 109.848L123.084 110.169L122.849 102.584L118.014 106.864Z" fill="#798CB3"/>
<path d="M131.987 106.863L127.078 102.498L126.917 110.169L133.965 109.848L131.987 106.863Z" fill="#798CB3"/>
<path d="M118.397 120.528L122.663 118.469L118.991 115.607L118.397 120.528Z" fill="#798CB2"/>
<path d="M127.337 118.469L131.59 120.528L131.009 115.607L127.337 118.469Z" fill="#798CB2"/>
<path d="M131.59 120.529L127.337 118.469L127.683 121.232L127.646 122.403L131.59 120.529Z" fill="#A5B5D6"/>
<path d="M118.397 120.529L122.354 122.403L122.329 121.232L122.663 118.469L118.397 120.529Z" fill="#A5B5D6"/>
<path d="M122.428 113.782L118.892 112.746L121.389 111.599L122.428 113.782Z" fill="#3F5173"/>
<path d="M127.572 113.782L128.611 111.599L131.121 112.746L127.572 113.782Z" fill="#3F5173"/>
<path d="M118.398 120.528L119.016 115.447L115.084 115.558L118.398 120.528Z" fill="#5F75A1"/>
<path d="M130.984 115.447L131.59 120.528L134.916 115.558L130.984 115.447Z" fill="#5F75A1"/>
<path d="M133.965 109.848L126.917 110.168L127.572 113.782L128.611 111.599L131.121 112.746L133.965 109.848Z" fill="#5F75A1"/>
<path d="M118.892 112.746L121.39 111.599L122.429 113.782L123.084 110.168L116.036 109.848L118.892 112.746Z" fill="#5F75A1"/>
<path d="M116.037 109.848L118.992 115.607L118.893 112.746L116.037 109.848Z" fill="#889ABF"/>
<path d="M131.121 112.746L131.01 115.607L133.965 109.848L131.121 112.746Z" fill="#889ABF"/>
<path d="M123.084 110.168L122.429 113.782L123.257 118.049L123.443 112.425L123.084 110.168Z" fill="#889ABF"/>
<path d="M126.917 110.168L126.57 112.413L126.743 118.049L127.572 113.782L126.917 110.168Z" fill="#889ABF"/>
<path d="M127.573 113.782L126.744 118.049L127.338 118.469L131.01 115.607L131.121 112.746L127.573 113.782Z" fill="#A5B5D6"/>
<path d="M118.892 112.746L118.991 115.607L122.663 118.469L123.256 118.049L122.428 113.782L118.892 112.746Z" fill="#A5B5D6"/>
<path d="M127.646 122.403L127.683 121.231L127.362 120.96H122.639L122.329 121.231L122.354 122.403L118.397 120.528L119.782 121.663L122.589 123.599H127.399L130.218 121.663L131.591 120.528L127.646 122.403Z" fill="#889ABF"/>
<path d="M127.338 118.469L126.744 118.049H123.257L122.664 118.469L122.33 121.231L122.639 120.96H127.363L127.684 121.231L127.338 118.469Z" fill="#3F5173"/>
<path d="M139.949 103.854L141 98.7482L139.417 94L127.337 102.941L131.986 106.863L138.552 108.775L139.998 107.085L139.368 106.629L140.369 105.716L139.603 105.124L140.604 104.36L139.949 103.854Z" fill="#596D94"/>
<path d="M109 98.7482L110.063 103.854L109.383 104.36L110.397 105.124L109.631 105.716L110.632 106.629L110.002 107.085L111.448 108.775L118.014 106.863L122.663 102.941L110.583 94L109 98.7482Z" fill="#596D94"/>
<path d="M138.552 108.775L131.987 106.864L133.965 109.848L131.01 115.608L134.917 115.559H140.753L138.552 108.775Z" fill="#A5B5D6"/>
<path d="M118.014 106.864L111.448 108.775L109.26 115.559H115.084L118.991 115.608L116.036 109.848L118.014 106.864Z" fill="#A5B5D6"/>
<path d="M126.916 110.169L127.337 102.942L129.241 97.7988H120.759L122.663 102.942L123.083 110.169L123.244 112.438L123.256 118.05H126.743L126.756 112.438L126.916 110.169Z" fill="#A5B5D6"/>
<circle cx="208.706" cy="214.706" r="3.7065" fill="white"/>
<circle cx="31.7065" cy="101.706" r="3.7065" fill="white"/>
<circle cx="213.706" cy="33.7065" r="3.7065" fill="white"/>
<circle cx="109.706" cy="236.706" r="3.7065" fill="white"/>
<path d="M27.0717 176.232L20.6442 173.868C20.4552 173.798 20.2921 173.672 20.1769 173.507C20.0617 173.342 20 173.145 20 172.944C20 172.742 20.0617 172.546 20.1769 172.38C20.2921 172.215 20.4552 172.089 20.6442 172.019L27.0717 169.655C27.2056 169.606 27.3271 169.529 27.4279 169.428C27.5287 169.327 27.6063 169.206 27.6553 169.072L30.0192 162.644C30.089 162.455 30.215 162.292 30.3803 162.177C30.5456 162.062 30.7422 162 30.9437 162C31.1451 162 31.3418 162.062 31.5071 162.177C31.6723 162.292 31.7984 162.455 31.8681 162.644L34.2321 169.072C34.2811 169.206 34.3587 169.327 34.4595 169.428C34.5603 169.529 34.6818 169.606 34.8156 169.655L41.2432 172.019C41.4322 172.089 41.5953 172.215 41.7104 172.38C41.8256 172.546 41.8874 172.742 41.8874 172.944C41.8874 173.145 41.8256 173.342 41.7104 173.507C41.5953 173.672 41.4322 173.798 41.2432 173.868L34.8156 176.232C34.6818 176.281 34.5603 176.359 34.4595 176.459C34.3587 176.56 34.2811 176.682 34.2321 176.816L31.8681 183.243C31.7984 183.432 31.6723 183.595 31.5071 183.71C31.3418 183.826 31.1451 183.887 30.9437 183.887C30.7422 183.887 30.5456 183.826 30.3803 183.71C30.215 183.595 30.089 183.432 30.0192 183.243L27.6553 176.816C27.6063 176.682 27.5287 176.56 27.4279 176.459C27.3271 176.359 27.2056 176.281 27.0717 176.232Z" fill="#2AB5F0"/>
<path d="M212.848 108.795L205.715 106.172C205.505 106.094 205.324 105.954 205.196 105.771C205.069 105.588 205 105.369 205 105.146C205 104.922 205.069 104.704 205.196 104.52C205.324 104.337 205.505 104.197 205.715 104.12L212.848 101.496C212.997 101.442 213.132 101.356 213.244 101.244C213.356 101.132 213.442 100.997 213.496 100.848L216.12 93.7149C216.197 93.5052 216.337 93.3242 216.52 93.1964C216.704 93.0685 216.922 93 217.146 93C217.369 93 217.588 93.0685 217.771 93.1964C217.954 93.3242 218.094 93.5052 218.172 93.7149L220.795 100.848C220.85 100.997 220.936 101.132 221.048 101.244C221.16 101.356 221.294 101.442 221.443 101.496L228.577 104.12C228.786 104.197 228.967 104.337 229.095 104.52C229.223 104.704 229.291 104.922 229.291 105.146C229.291 105.369 229.223 105.588 229.095 105.771C228.967 105.954 228.786 106.094 228.577 106.172L221.443 108.795C221.294 108.85 221.16 108.936 221.048 109.048C220.936 109.16 220.85 109.294 220.795 109.443L218.172 116.577C218.094 116.786 217.954 116.967 217.771 117.095C217.588 117.223 217.369 117.291 217.146 117.291C216.922 117.291 216.704 117.223 216.52 117.095C216.337 116.967 216.197 116.786 216.12 116.577L213.496 109.443C213.442 109.294 213.356 109.16 213.244 109.048C213.132 108.936 212.997 108.85 212.848 108.795Z" fill="#2AB5F0"/>
<path d="M39.8485 25.7954L32.7149 23.1717C32.5052 23.0943 32.3242 22.9544 32.1964 22.771C32.0685 22.5875 32 22.3693 32 22.1457C32 21.9221 32.0685 21.7039 32.1964 21.5205C32.3242 21.337 32.5052 21.1972 32.7149 21.1197L39.8485 18.4961C39.997 18.4417 40.1319 18.3556 40.2438 18.2437C40.3556 18.1319 40.4417 17.997 40.4961 17.8485L43.1197 10.7149C43.1972 10.5052 43.337 10.3242 43.5205 10.1964C43.7039 10.0685 43.9221 10 44.1457 10C44.3693 10 44.5875 10.0685 44.771 10.1964C44.9544 10.3242 45.0943 10.5052 45.1717 10.7149L47.7954 17.8485C47.8497 17.997 47.9359 18.1319 48.0477 18.2437C48.1596 18.3556 48.2944 18.4417 48.443 18.4961L55.5765 21.1197C55.7863 21.1972 55.9673 21.337 56.0951 21.5205C56.2229 21.7039 56.2915 21.9221 56.2915 22.1457C56.2915 22.3693 56.2229 22.5875 56.0951 22.771C55.9673 22.9544 55.7863 23.0943 55.5765 23.1717L48.443 25.7954C48.2944 25.8497 48.1596 25.9359 48.0477 26.0477C47.9359 26.1596 47.8497 26.2944 47.7954 26.443L45.1717 33.5765C45.0943 33.7863 44.9544 33.9673 44.771 34.0951C44.5875 34.2229 44.3693 34.2915 44.1457 34.2915C43.9221 34.2915 43.7039 34.2229 43.5205 34.0951C43.337 33.9673 43.1972 33.7863 43.1197 33.5765L40.4961 26.443C40.4417 26.2944 40.3556 26.1596 40.2438 26.0477C40.1319 25.9359 39.997 25.8497 39.8485 25.7954Z" fill="#2AB5F0"/>
<defs>
<clipPath id="clip0_162_796">
<rect x="187" y="45" width="160" height="124" rx="14.4578" transform="rotate(90 187 45)" fill="white"/>
</clipPath>
</defs>
</svg>
