<svg version="1.2" xmlns="http://www.w3.org/2000/svg" viewBox="0 0 183 176" width="190" height="190">
	<title>success-svg</title>
	<defs>
		<clipPath clipPathUnits="userSpaceOnUse" id="cp1">
			<path d="m92 169.49c-21.88 0-39.56-1.65-39.56-3.7 0-2.05 17.68-3.71 39.56-3.71 21.88 0 39.56 1.66 39.56 3.71 0 2.05-17.68 3.7-39.56 3.7z"/>
		</clipPath>
	</defs>
	<style>
		.s0 { fill: #161f30 } 
		.s1 { fill: #0c111a } 
		.s2 { fill: none;stroke: #a5b5d6;stroke-linecap: round;stroke-linejoin: round;stroke-width: 4 } 
		.s3 { fill: none;stroke: #ffffff;stroke-linejoin: round;stroke-width: 2 } 
		.s4 { fill: #2ab5f0 } 
		.s5 { fill: none;stroke: #3a4a6e;stroke-linecap: round;stroke-linejoin: round;stroke-width: 4 } 
		.s6 { fill: #ffffff } 
	</style>
	<g id="Layer" style="opacity: .2">
		<path id="Layer" class="s0" d="m92 169.5c-21.9 0-39.6-1.7-39.6-3.7 0-2.1 17.7-3.7 39.6-3.7 21.9 0 39.6 1.6 39.6 3.7 0 2-17.7 3.7-39.6 3.7z"/>
		<g id="Clip-Path" clip-path="url(#cp1)">
			<path id="Layer" class="s1" d="m120.4 165.8c0-4.2 2.3-6.8 3.4-7.8 1.1-1 2.1-1.5 2.3-1.6 0.6-0.2 0.7-0.2-0.1 0-1.3 0.3-3.6 0.6-7.1 0.9-6.7 0.7-16.2 1.1-26.9 1.1v22.2c11.2 0 21.4-0.4 29-1.1 3.7-0.4 7.2-0.8 9.9-1.4 1.2-0.3 2.9-0.7 4.5-1.5 0.7-0.3 2.1-1 3.5-2.3 1.3-1.2 3.8-4.1 3.8-8.5zm-28.5-7.4c-10.7 0-20.2-0.4-26.9-1.1-3.4-0.3-5.8-0.6-7.1-0.9-0.8-0.2-0.6-0.2-0.1 0 0.2 0.1 1.2 0.6 2.3 1.6 1.1 1 3.4 3.6 3.4 7.8h-22.2c0 4.4 2.4 7.3 3.7 8.5 1.4 1.3 2.8 2 3.6 2.3 1.6 0.8 3.2 1.2 4.5 1.5 2.7 0.6 6.1 1 9.8 1.4 7.6 0.7 17.9 1.1 29 1.1zm-28.4 7.4c0 4.2-2.3 6.8-3.4 7.8-1.1 1-2.1 1.5-2.3 1.6-0.5 0.2-0.7 0.2 0.1 0 1.3-0.3 3.7-0.6 7.1-0.9 6.7-0.7 16.2-1.1 26.9-1.1v-22.2c-11.1 0-21.4 0.4-29 1.1-3.7 0.4-7.1 0.8-9.8 1.4-1.3 0.3-2.9 0.7-4.5 1.5-0.8 0.3-2.2 1-3.6 2.3-1.3 1.2-3.7 4.1-3.7 8.5zm28.4 7.4c10.7 0 20.2 0.4 26.9 1.1 3.5 0.3 5.8 0.6 7.1 0.9 0.8 0.2 0.7 0.2 0.1 0-0.2-0.1-1.2-0.6-2.3-1.6-1.1-1-3.4-3.6-3.4-7.8h22.3c0-4.4-2.5-7.3-3.8-8.5-1.4-1.3-2.8-2-3.5-2.3-1.6-0.8-3.3-1.2-4.5-1.5-2.7-0.6-6.2-1-9.9-1.4-7.6-0.7-17.8-1.1-29-1.1z"/>
		</g>
	</g>
	<path id="Layer" fill-rule="evenodd" class="s2" d="m24.9 95c0 37 30.1 67.1 67.1 67.1 37 0 67.1-30.1 67.1-67.1 0-37-30.1-67.1-67.1-67.1m-67.1 67.1l-12.1 12.1m12.1-12.1l12.1 12.1"/>
	<path id="Layer" fill-rule="evenodd" class="s2" d="m92 27.9c-23.6 0-44.4 12.2-56.3 30.7"/>
	<path id="Layer" fill-rule="evenodd" class="s3" d="m91.9 103l-15.1-8.9 15.1-25.2m0 0l15.3 25.2-15.3 8.9zm-15.1 31l15.1 9v12.2zm30.4 0l-15.3 9.1v12.2zm-15.3-30.9v18.3 15.9m0 18v-12.2"/>
	<path id="Layer" class="s4" d="m13.4 24.1l-9.6-3.5q-0.4-0.2-0.7-0.6-0.3-0.4-0.3-0.8 0-0.5 0.3-0.9 0.3-0.4 0.7-0.5l9.6-3.6q0.4-0.1 0.6-0.3 0.2-0.2 0.3-0.5l3.6-9.7q0.1-0.4 0.5-0.7 0.4-0.2 0.9-0.2 0.4 0 0.8 0.2 0.4 0.3 0.5 0.7l3.6 9.7q0.1 0.3 0.3 0.5 0.3 0.2 0.6 0.3l9.6 3.6q0.4 0.1 0.7 0.5 0.3 0.4 0.3 0.9 0 0.4-0.3 0.8-0.3 0.4-0.7 0.6l-9.6 3.5q-0.3 0.1-0.6 0.3-0.2 0.3-0.3 0.6l-3.6 9.6q-0.1 0.5-0.5 0.7-0.4 0.3-0.8 0.3-0.5 0-0.9-0.3-0.4-0.2-0.5-0.7l-3.6-9.6q-0.1-0.3-0.3-0.6-0.2-0.2-0.6-0.3z"/>
	<path id="Layer" class="s4" d="m155.6 172.1c-13.3 0-24-10.7-24-24 0-13.3 10.7-24 24-24 13.2 0 24 10.7 24 24 0 13.3-10.8 24-24 24z"/>
	<path id="Layer" fill-rule="evenodd" class="s5" d="m147.8 148.4l4.5 5.2 11-11"/>
	<path id="Layer" class="s4" d="m163.4 51.4l-7.1-2.6q-0.3-0.2-0.5-0.4-0.2-0.3-0.2-0.7 0-0.3 0.2-0.6 0.2-0.3 0.5-0.4l7.1-2.6q0.2-0.1 0.4-0.3 0.2-0.1 0.3-0.4l2.6-7.1q0.1-0.3 0.4-0.5 0.3-0.2 0.6-0.2 0.3 0 0.6 0.2 0.3 0.2 0.4 0.5l2.7 7.1q0 0.3 0.2 0.4 0.2 0.2 0.4 0.3l7.1 2.6q0.4 0.1 0.6 0.4 0.1 0.3 0.1 0.6 0 0.4-0.1 0.7-0.2 0.2-0.6 0.4l-7.1 2.6q-0.2 0.1-0.4 0.2-0.2 0.2-0.2 0.4l-2.7 7.2q-0.1 0.3-0.4 0.5-0.3 0.2-0.6 0.2-0.3 0-0.6-0.2-0.3-0.2-0.4-0.5l-2.6-7.2q-0.1-0.2-0.3-0.4-0.2-0.1-0.4-0.2z"/>
	<path id="Layer" class="s6" d="m109.4 18.1c-2 0-3.7-1.7-3.7-3.7 0-2.1 1.7-3.7 3.7-3.7 2.1 0 3.7 1.6 3.7 3.7 0 2-1.6 3.7-3.7 3.7z"/>
	<path id="Layer" class="s6" d="m-6.6 68.9c-1.6 0-3-1.3-3-3 0-1.7 1.4-3 3-3 1.7 0 3 1.3 3 3 0 1.7-1.3 3-3 3z"/>
	<path id="Layer" class="s6" d="m186 124.1c-1.6 0-3-1.3-3-3 0-1.7 1.4-3 3-3 1.7 0 3 1.3 3 3 0 1.7-1.3 3-3 3z"/>
	<path id="Layer" class="s6" d="m88 190.4c-2.2 0-4-1.8-4-4 0-2.2 1.8-4 4-4 2.2 0 4 1.8 4 4 0 2.2-1.8 4-4 4z"/>
	<path id="Layer" class="s4" d="m10.7 153.6l-7.1-2.6q-0.4-0.2-0.6-0.4-0.2-0.3-0.2-0.7 0-0.3 0.2-0.6 0.2-0.3 0.6-0.4l7.1-2.6q0.2-0.1 0.4-0.3 0.2-0.1 0.2-0.4l2.7-7.1q0.1-0.3 0.4-0.5 0.2-0.2 0.6-0.2 0.3 0 0.6 0.2 0.3 0.2 0.4 0.5l2.6 7.1q0.1 0.3 0.3 0.4 0.2 0.2 0.4 0.3l7.1 2.6q0.3 0.1 0.5 0.4 0.2 0.3 0.2 0.6 0 0.4-0.2 0.7-0.2 0.2-0.5 0.4l-7.1 2.6q-0.2 0.1-0.4 0.2-0.2 0.2-0.3 0.4l-2.6 7.2q-0.1 0.3-0.4 0.5-0.3 0.2-0.6 0.2-0.4 0-0.6-0.2-0.3-0.2-0.4-0.5l-2.7-7.2q0-0.2-0.2-0.4-0.2-0.1-0.4-0.2z"/>
	<path id="Layer" class="s6" d="m164.5 93.7c0-0.8 0.6-1.4 1.3-1.4h25.2c0.7 0 1.3 0.6 1.3 1.4 0 0.7-0.6 1.3-1.3 1.3h-25.2c-0.7 0-1.3-0.6-1.3-1.3z"/>
	<path id="Layer" class="s6" d="m152.2 87.6c0-0.7 0.6-1.3 1.4-1.3h25.1c0.8 0 1.4 0.6 1.4 1.3 0 0.7-0.6 1.3-1.4 1.3h-25.1c-0.8 0-1.4-0.6-1.4-1.3z"/>
</svg>