<svg width="227" height="186" viewBox="0 0 227 186" fill="none" xmlns="http://www.w3.org/2000/svg">
<g opacity="0.2">
<mask id="path-2-inside-1_114_732" fill="white">
<ellipse cx="72.4008" cy="165.925" rx="44.186" ry="7.41305"/>
</mask>
<ellipse cx="72.4008" cy="165.925" rx="44.186" ry="7.41305" fill="#161F30"/>
<path d="M105.467 165.925C105.467 161.612 108.087 159.273 108.639 158.82C109.321 158.261 109.652 158.222 109.015 158.475C107.85 158.937 105.505 159.58 101.805 160.201C94.5839 161.412 84.182 162.219 72.4008 162.219V184.458C85.023 184.458 96.7141 183.605 105.485 182.133C109.781 181.413 113.907 180.459 117.214 179.147C118.813 178.513 120.88 177.542 122.739 176.018C124.468 174.6 127.706 171.262 127.706 165.925H105.467ZM72.4008 162.219C60.6197 162.219 50.2178 161.412 42.9964 160.201C39.2963 159.58 36.952 158.937 35.787 158.475C35.1501 158.222 35.4805 158.261 36.1625 158.82C36.7145 159.273 39.3343 161.612 39.3343 165.925H17.0953C17.0953 171.262 20.3334 174.6 22.0626 176.018C23.9218 177.542 25.9883 178.513 27.5874 179.147C30.8943 180.459 35.0208 181.413 39.3168 182.133C48.0876 183.605 59.7787 184.458 72.4008 184.458V162.219ZM39.3343 165.925C39.3343 170.239 36.7145 172.578 36.1625 173.03C35.4805 173.589 35.1501 173.628 35.787 173.376C36.952 172.914 39.2963 172.27 42.9964 171.65C50.2178 170.438 60.6197 169.632 72.4008 169.632V147.393C59.7787 147.393 48.0876 148.246 39.3168 149.717C35.0208 150.438 30.8943 151.392 27.5874 152.704C25.9883 153.338 23.9218 154.308 22.0626 155.832C20.3334 157.25 17.0953 160.588 17.0953 165.925H39.3343ZM72.4008 169.632C84.182 169.632 94.5839 170.438 101.805 171.65C105.505 172.27 107.85 172.914 109.015 173.376C109.652 173.628 109.321 173.589 108.639 173.03C108.087 172.578 105.467 170.239 105.467 165.925H127.706C127.706 160.588 124.468 157.25 122.739 155.832C120.88 154.308 118.813 153.338 117.214 152.704C113.907 151.392 109.781 150.438 105.485 149.717C96.7141 148.246 85.023 147.393 72.4008 147.393V169.632Z" fill="#0C111A" mask="url(#path-2-inside-1_114_732)"/>
</g>
<circle cx="219.46" cy="46.0703" r="3.7065" fill="white"/>
<g clip-path="url(#clip0_114_732)">
<circle cx="143.638" cy="73.9106" r="59.074" fill="#3F5173" stroke="#A5B5D6" stroke-width="2.471"/>
<circle cx="143.638" cy="73.9105" r="46.1506" fill="#3F5173" stroke="#A5B5D6" stroke-width="2.471"/>
<path fill-rule="evenodd" clip-rule="evenodd" d="M109.231 102.731C102.486 94.8641 98.4102 84.6347 98.4102 73.4519C98.4102 48.6185 118.509 28.4871 143.303 28.4871C158.391 28.4871 171.741 35.9424 179.881 47.3759C171.821 40.1533 161.179 35.7617 149.514 35.7617C124.352 35.7617 103.954 56.1921 103.954 81.3942C103.954 89.1021 105.862 96.3638 109.231 102.731Z" fill="#2E3C57"/>
<path d="M194.661 140.772L187.527 138.148C187.318 138.071 187.137 137.931 187.009 137.748C186.881 137.564 186.812 137.346 186.812 137.122C186.812 136.899 186.881 136.68 187.009 136.497C187.137 136.314 187.318 136.174 187.527 136.096L194.661 133.473C194.81 133.418 194.944 133.332 195.056 133.22C195.168 133.108 195.254 132.974 195.309 132.825L197.932 125.691C198.01 125.482 198.15 125.301 198.333 125.173C198.516 125.045 198.735 124.977 198.958 124.977C199.182 124.977 199.4 125.045 199.583 125.173C199.767 125.301 199.907 125.482 199.984 125.691L202.608 132.825C202.662 132.974 202.748 133.108 202.86 133.22C202.972 133.332 203.107 133.418 203.255 133.473L210.389 136.096C210.599 136.174 210.78 136.314 210.908 136.497C211.035 136.68 211.104 136.899 211.104 137.122C211.104 137.346 211.035 137.564 210.908 137.748C210.78 137.931 210.599 138.071 210.389 138.148L203.255 140.772C203.107 140.826 202.972 140.912 202.86 141.024C202.748 141.136 202.662 141.271 202.608 141.42L199.984 148.553C199.907 148.763 199.767 148.944 199.583 149.072C199.4 149.199 199.182 149.268 198.958 149.268C198.735 149.268 198.516 149.199 198.333 149.072C198.15 148.944 198.01 148.763 197.932 148.553L195.309 141.42C195.254 141.271 195.168 141.136 195.056 141.024C194.944 140.912 194.81 140.826 194.661 140.772Z" fill="#2AB5F0"/>
<path d="M199.649 18.0283L192.516 15.4046C192.306 15.3272 192.125 15.1873 191.997 15.0039C191.869 14.8204 191.801 14.6022 191.801 14.3786C191.801 14.155 191.869 13.9368 191.997 13.7534C192.125 13.5699 192.306 13.4301 192.516 13.3527L199.649 10.729C199.798 10.6746 199.933 10.5885 200.045 10.4767C200.156 10.3648 200.242 10.2299 200.297 10.0814L202.921 2.94785C202.998 2.73809 203.138 2.5571 203.321 2.42927C203.505 2.30144 203.723 2.23291 203.947 2.23291C204.17 2.23291 204.388 2.30144 204.572 2.42927C204.755 2.5571 204.895 2.73809 204.972 2.94785L207.596 10.0814C207.651 10.2299 207.737 10.3648 207.848 10.4767C207.96 10.5885 208.095 10.6746 208.244 10.729L215.377 13.3527C215.587 13.4301 215.768 13.5699 215.896 13.7534C216.024 13.9368 216.092 14.155 216.092 14.3786C216.092 14.6022 216.024 14.8204 215.896 15.0039C215.768 15.1873 215.587 15.3272 215.377 15.4046L208.244 18.0283C208.095 18.0827 207.96 18.1688 207.848 18.2806C207.737 18.3925 207.651 18.5274 207.596 18.6759L204.972 25.8094C204.895 26.0192 204.755 26.2002 204.572 26.328C204.388 26.4558 204.17 26.5244 203.947 26.5244C203.723 26.5244 203.505 26.4558 203.321 26.328C203.138 26.2002 202.998 26.0192 202.921 25.8094L200.297 18.6759C200.242 18.5274 200.156 18.3925 200.045 18.2806C199.933 18.1688 199.798 18.0827 199.649 18.0283Z" fill="#2AB5F0"/>
<path d="M13.5614 34.6315L6.42783 32.0079C6.21807 31.9305 6.03708 31.7906 5.90925 31.6072C5.78142 31.4237 5.71289 31.2055 5.71289 30.9819C5.71289 30.7583 5.78142 30.5401 5.90925 30.3567C6.03708 30.1732 6.21807 30.0334 6.42783 29.9559L13.5614 27.3323C13.7099 27.2779 13.8448 27.1918 13.9566 27.0799C14.0685 26.9681 14.1546 26.8332 14.209 26.6847L16.8326 19.5511C16.9101 19.3414 17.0499 19.1604 17.2334 19.0325C17.4168 18.9047 17.635 18.8362 17.8586 18.8362C18.0822 18.8362 18.3004 18.9047 18.4839 19.0325C18.6673 19.1604 18.8072 19.3414 18.8846 19.5511L21.5082 26.6847C21.5626 26.8332 21.6488 26.9681 21.7606 27.0799C21.8724 27.1918 22.0073 27.2779 22.1559 27.3323L29.2894 29.9559C29.4992 30.0334 29.6802 30.1732 29.808 30.3567C29.9358 30.5401 30.0043 30.7583 30.0043 30.9819C30.0043 31.2055 29.9358 31.4237 29.808 31.6072C29.6802 31.7906 29.4992 31.9305 29.2894 32.0079L22.1559 34.6315C22.0073 34.6859 21.8724 34.772 21.7606 34.8839C21.6488 34.9957 21.5626 35.1306 21.5082 35.2792L18.8846 42.4127C18.8072 42.6225 18.6673 42.8034 18.4839 42.9313C18.3004 43.0591 18.0822 43.1276 17.8586 43.1276C17.635 43.1276 17.4168 43.0591 17.2334 42.9313C17.0499 42.8034 16.9101 42.6225 16.8326 42.4127L14.209 35.2792C14.1546 35.1306 14.0685 34.9957 13.9566 34.8839C13.8448 34.772 13.7099 34.6859 13.5614 34.6315Z" fill="#2AB5F0"/>
<circle cx="72.4033" cy="103.437" r="59.074" fill="#3F5173" stroke="#A5B5D6" stroke-width="2.471"/>
<circle cx="72.4017" cy="103.437" r="46.1506" stroke="#A5B5D6" stroke-width="2.471"/>
<path fill-rule="evenodd" clip-rule="evenodd" d="M37.9332 132.193C31.1839 124.326 27.1055 114.097 27.1055 102.915C27.1055 78.0828 47.2179 57.9524 72.0278 57.9524C87.1259 57.9524 100.484 65.4074 108.629 76.8402C100.564 69.618 89.9156 65.2267 78.2422 65.2267C53.0639 65.2267 32.6529 85.656 32.6529 110.857C32.6529 118.564 34.5622 125.826 37.9332 132.193Z" fill="#2E3C57"/>
<path d="M138.94 164.097C138.94 164.097 101.393 143.879 101.393 120.051C101.393 114.881 103.447 109.922 107.103 106.266C110.759 102.61 115.718 100.556 120.888 100.556C129.044 100.556 136.03 105 138.94 112.109C141.85 105 148.835 100.556 156.991 100.556C162.162 100.556 167.12 102.61 170.777 106.266C174.433 109.922 176.487 114.881 176.487 120.051C176.487 143.879 138.94 164.097 138.94 164.097Z" fill="#3F5173" stroke="#A5B5D6" stroke-width="2.471" stroke-linecap="round" stroke-linejoin="round"/>
<path d="M122.945 108.895C120.387 109.2 117.93 110.074 115.754 111.453C113.578 112.831 111.738 114.679 110.369 116.861" stroke="#A5B5D6" stroke-width="2.471" stroke-linecap="round"/>
<path d="M72.3168 77.3325L57.1916 102.571L72.3168 111.474M72.3168 77.3325L87.6157 102.571L72.3168 111.474M72.3168 77.3325V95.6268V111.474M72.3166 129.542L57.1914 108.247L72.3166 117.275M72.3166 129.542L87.6155 108.247L72.3166 117.275M72.3166 129.542V117.275" stroke="white" stroke-width="2.471" stroke-linejoin="round"/>
<path d="M143.551 46.4644L128.426 71.7028L143.551 80.6054M143.551 46.4644L158.85 71.7028L143.551 80.6054M143.551 46.4644V64.7586V80.6054M143.551 98.6736L128.426 77.379L143.551 86.4066M143.551 98.6736L158.85 77.379L143.551 86.4066M143.551 98.6736V86.4066" stroke="white" stroke-width="2.471" stroke-linejoin="round"/>
</g>
<circle cx="17.0874" cy="173.338" r="3.7065" fill="white"/>
<circle cx="171.847" cy="177.045" r="3.7065" fill="white"/>
<defs>
<clipPath id="clip0_114_732">
<rect width="211" height="179" fill="white" transform="translate(5.71289 1.99902)"/>
</clipPath>
</defs>
</svg>
