<svg width="121" height="121" viewBox="0 0 121 121" fill="none" xmlns="http://www.w3.org/2000/svg">
<circle cx="60.3095" cy="60.3095" r="59.074" fill="#3F5173" stroke="#A5B5D6" stroke-width="2.471"/>
<circle cx="60.3079" cy="60.3094" r="46.1506" stroke="#A5B5D6" stroke-width="2.471"/>
<path fill-rule="evenodd" clip-rule="evenodd" d="M25.8395 89.0644C19.0902 81.1979 15.0117 70.969 15.0117 59.7867C15.0117 34.9546 35.1241 14.8242 59.934 14.8242C75.0321 14.8242 88.3906 22.2792 96.5354 33.7121C88.4705 26.4899 77.8218 22.0985 66.1485 22.0985C40.9702 22.0985 20.5592 42.5278 20.5592 67.7286C20.5592 75.4362 22.4685 82.6975 25.8395 89.0644Z" fill="#2E3C57"/>
<path d="M69.5493 67.0054L69.5491 59" stroke="#2E3C57"/>
<path d="M53.0002 41.5001L41 51" stroke="#2E3C57"/>
<path d="M83.7536 70.9737L69.1231 82.5" stroke="#2E3C57"/>
<path fill-rule="evenodd" clip-rule="evenodd" d="M38.487 51.0805L52.6999 62.3133C53.6035 63.0551 55.2018 62.5083 55.1717 61.508L55.2032 55.9538C55.2089 55.955 55.2146 55.9572 55.2203 55.9573L82.4264 56.1114C83.214 56.1159 83.8612 55.6173 83.8647 55.0034L83.9153 46.0738C83.9187 45.4599 83.2772 44.9539 82.4897 44.9495L55.2836 44.7953C55.2778 44.7953 55.2721 44.7975 55.2664 44.7974L55.2978 39.2477C55.3378 38.2522 53.7572 37.703 52.8468 38.4056L38.4975 49.4854C37.9308 49.9231 37.9268 50.6375 38.487 51.0805ZM52.4117 41.917L52.3828 47.0113L52.4071 47.0115L53.839 47.0196L55.2537 47.0276L55.2538 47.0254C55.2595 47.0254 55.2652 47.0276 55.2709 47.0277L56.7028 47.0358L81.0451 47.1737L81.0072 53.8709L56.6649 53.733L55.233 53.7249C55.2272 53.7248 55.2215 53.727 55.2158 53.727L55.2158 53.7248L53.8011 53.7167L52.3692 53.7086L52.3448 53.7085L52.3159 58.8073L41.5529 50.3009L52.4117 41.917Z" fill="#A5B5D6"/>
<path fill-rule="evenodd" clip-rule="evenodd" d="M83.4413 69.6369L69.2012 58.4386C68.2957 57.699 66.6988 58.2497 66.7313 59.25L66.7134 64.8042C66.7077 64.8031 66.7019 64.8008 66.6962 64.8008L39.4898 64.7128C38.7023 64.7102 38.0563 65.2105 38.0543 65.8244L38.0254 74.754C38.0234 75.368 38.6661 75.8723 39.4537 75.8749L66.6601 75.9629C66.6658 75.9629 66.6716 75.9607 66.6773 75.9607L66.6593 81.5105C66.6218 82.506 68.2037 83.0514 69.1124 82.3467L83.4347 71.2319C84.0003 70.7928 84.0026 70.0785 83.4413 69.6369ZM69.539 78.8342L69.5555 73.7398L69.5312 73.7397L68.0992 73.7351L66.6845 73.7305L66.6845 73.7328C66.6788 73.7327 66.6731 73.7305 66.6673 73.7305L65.2354 73.7258L40.8928 73.6471L40.9145 66.9498L65.2571 67.0286L66.689 67.0332C66.6947 67.0332 66.7004 67.031 66.7062 67.031L66.7062 67.0333L68.1209 67.0379L69.5528 67.0425L69.5772 67.0426L69.5854 64.4931L69.5937 61.9437L80.3773 70.4239L69.539 78.8342Z" fill="#A5B5D6"/>
</svg>
