<svg width="467" height="250" viewBox="0 0 467 250" fill="none" xmlns="http://www.w3.org/2000/svg">
<rect width="467" height="250" rx="12" fill="#3F5173"/>
<path d="M194.833 137.707V116.051H200.995V118.42H197.799V135.347H200.995V137.707H194.833ZM214.915 120.909L210.253 134H206.844L202.182 120.909H205.472L208.48 130.634H208.617L211.634 120.909H214.915ZM217.05 134V120.909H220.135V134H217.05ZM218.601 119.051C218.113 119.051 217.692 118.889 217.34 118.565C216.988 118.236 216.811 117.841 216.811 117.381C216.811 116.915 216.988 116.52 217.34 116.196C217.692 115.866 218.113 115.702 218.601 115.702C219.096 115.702 219.516 115.866 219.863 116.196C220.215 116.52 220.391 116.915 220.391 117.381C220.391 117.841 220.215 118.236 219.863 118.565C219.516 118.889 219.096 119.051 218.601 119.051ZM228.166 134.23C227.137 134.23 226.217 133.966 225.404 133.438C224.592 132.909 223.95 132.142 223.478 131.136C223.007 130.131 222.771 128.909 222.771 127.472C222.771 126.017 223.01 124.79 223.487 123.79C223.97 122.784 224.62 122.026 225.439 121.514C226.257 120.997 227.169 120.739 228.174 120.739C228.941 120.739 229.572 120.869 230.066 121.131C230.561 121.386 230.953 121.696 231.243 122.06C231.532 122.418 231.757 122.756 231.916 123.074H232.044V116.545H235.137V134H232.103V131.938H231.916C231.757 132.256 231.527 132.594 231.225 132.952C230.924 133.304 230.527 133.605 230.032 133.855C229.538 134.105 228.916 134.23 228.166 134.23ZM229.027 131.699C229.68 131.699 230.237 131.523 230.697 131.17C231.157 130.812 231.507 130.315 231.745 129.679C231.984 129.043 232.103 128.301 232.103 127.455C232.103 126.608 231.984 125.872 231.745 125.247C231.512 124.622 231.166 124.136 230.706 123.79C230.251 123.443 229.691 123.27 229.027 123.27C228.339 123.27 227.765 123.449 227.305 123.807C226.845 124.165 226.498 124.659 226.265 125.29C226.032 125.92 225.916 126.642 225.916 127.455C225.916 128.273 226.032 129.003 226.265 129.645C226.504 130.281 226.853 130.784 227.314 131.153C227.779 131.517 228.35 131.699 229.027 131.699ZM244.221 134.256C242.908 134.256 241.775 133.983 240.82 133.438C239.871 132.886 239.141 132.108 238.63 131.102C238.118 130.091 237.863 128.901 237.863 127.531C237.863 126.185 238.118 125.003 238.63 123.986C239.147 122.963 239.868 122.168 240.794 121.599C241.721 121.026 242.809 120.739 244.059 120.739C244.865 120.739 245.627 120.869 246.343 121.131C247.064 121.386 247.701 121.784 248.252 122.324C248.809 122.864 249.246 123.551 249.564 124.386C249.882 125.216 250.042 126.205 250.042 127.352V128.298H239.311V126.219H247.084C247.078 125.628 246.951 125.102 246.701 124.642C246.451 124.176 246.101 123.81 245.652 123.543C245.209 123.276 244.692 123.142 244.101 123.142C243.471 123.142 242.917 123.295 242.439 123.602C241.962 123.903 241.59 124.301 241.323 124.795C241.061 125.284 240.928 125.821 240.922 126.406V128.222C240.922 128.983 241.061 129.636 241.34 130.182C241.618 130.722 242.007 131.136 242.507 131.426C243.007 131.71 243.593 131.852 244.263 131.852C244.712 131.852 245.118 131.79 245.482 131.665C245.846 131.534 246.161 131.344 246.428 131.094C246.695 130.844 246.897 130.534 247.033 130.165L249.914 130.489C249.732 131.25 249.385 131.915 248.874 132.483C248.368 133.045 247.721 133.483 246.931 133.795C246.141 134.102 245.238 134.256 244.221 134.256ZM258.362 134.256C257.083 134.256 255.975 133.974 255.038 133.412C254.1 132.849 253.373 132.062 252.856 131.051C252.345 130.04 252.089 128.858 252.089 127.506C252.089 126.153 252.345 124.969 252.856 123.952C253.373 122.935 254.1 122.145 255.038 121.582C255.975 121.02 257.083 120.739 258.362 120.739C259.64 120.739 260.748 121.02 261.686 121.582C262.623 122.145 263.348 122.935 263.859 123.952C264.376 124.969 264.635 126.153 264.635 127.506C264.635 128.858 264.376 130.04 263.859 131.051C263.348 132.062 262.623 132.849 261.686 133.412C260.748 133.974 259.64 134.256 258.362 134.256ZM258.379 131.784C259.072 131.784 259.652 131.594 260.118 131.213C260.583 130.827 260.93 130.31 261.157 129.662C261.39 129.014 261.507 128.293 261.507 127.497C261.507 126.696 261.39 125.972 261.157 125.324C260.93 124.67 260.583 124.151 260.118 123.764C259.652 123.378 259.072 123.185 258.379 123.185C257.669 123.185 257.078 123.378 256.606 123.764C256.14 124.151 255.791 124.67 255.558 125.324C255.331 125.972 255.217 126.696 255.217 127.497C255.217 128.293 255.331 129.014 255.558 129.662C255.791 130.31 256.14 130.827 256.606 131.213C257.078 131.594 257.669 131.784 258.379 131.784ZM272.164 116.051V137.707H266.002V135.347H269.199V118.42H266.002V116.051H272.164Z" fill="white" fill-opacity="0.3"/>
</svg>
